<svg id="svg" version="1.1" xmlns="http://www.w3.org/2000/svg" xmlns:xlink="http://www.w3.org/1999/xlink" width="400" height="400" viewBox="0, 0, 400,400"><g id="svgg"><path id="path0" d="M199.867 139.867 C 199.381 140.353,199.590 140.779,200.200 140.545 C 200.530 140.418,200.800 140.154,200.800 139.957 C 200.800 139.538,200.249 139.484,199.867 139.867 M202.009 140.500 C 202.004 140.885,202.180 141.200,202.400 141.200 C 202.620 141.200,202.800 141.470,202.800 141.800 C 202.800 142.130,202.980 142.400,203.200 142.400 C 203.795 142.400,203.674 141.918,202.800 140.800 C 202.166 139.990,202.016 139.933,202.009 140.500 M198.105 142.308 C 197.613 142.908,197.208 143.625,197.205 143.900 C 197.202 144.175,197.050 144.400,196.868 144.400 C 196.685 144.400,196.280 144.895,195.968 145.500 C 195.655 146.105,195.085 146.949,194.700 147.375 C 194.315 147.802,194.000 148.387,194.000 148.675 C 194.000 148.964,193.850 149.200,193.668 149.200 C 193.485 149.200,193.080 149.695,192.768 150.300 C 192.456 150.905,192.026 151.525,191.812 151.678 C 191.598 151.831,191.544 152.078,191.693 152.226 C 192.028 152.561,192.822 151.745,193.568 150.300 C 193.880 149.695,194.285 149.200,194.468 149.200 C 194.650 149.200,194.800 148.930,194.800 148.600 C 194.800 148.270,194.980 148.000,195.200 148.000 C 195.420 148.000,195.600 147.730,195.600 147.400 C 195.600 147.070,195.780 146.800,196.000 146.800 C 196.220 146.800,196.400 146.429,196.400 145.976 C 196.400 145.523,196.580 145.264,196.800 145.400 C 197.020 145.536,197.200 145.367,197.200 145.024 C 197.200 144.681,197.380 144.400,197.600 144.400 C 197.820 144.400,198.000 144.010,198.000 143.533 C 198.000 143.057,198.117 142.784,198.260 142.927 C 198.521 143.188,199.563 142.066,199.587 141.500 C 199.613 140.896,198.978 141.242,198.105 142.308 M203.600 143.138 C 203.600 143.324,203.960 143.802,204.400 144.200 C 204.840 144.598,205.200 145.166,205.200 145.462 C 205.200 145.758,205.380 146.000,205.600 146.000 C 205.820 146.000,206.000 146.270,206.000 146.600 C 206.000 146.930,206.180 147.200,206.400 147.200 C 206.620 147.200,206.800 147.388,206.800 147.617 C 206.800 147.846,207.160 148.420,207.600 148.892 C 208.040 149.364,208.400 149.998,208.400 150.299 C 208.400 150.601,208.580 150.736,208.800 150.600 C 209.370 150.248,209.299 149.860,208.500 148.975 C 208.115 148.549,207.545 147.705,207.232 147.100 C 206.920 146.495,206.515 146.000,206.332 146.000 C 206.150 146.000,206.000 145.775,206.000 145.500 C 205.999 144.966,204.277 142.800,203.853 142.800 C 203.714 142.800,203.600 142.952,203.600 143.138 M209.200 151.005 C 209.200 151.426,210.223 153.013,210.900 153.643 C 211.285 154.001,211.600 154.548,211.600 154.859 C 211.600 155.169,211.960 155.683,212.400 156.000 C 212.840 156.317,213.200 156.857,213.200 157.200 C 213.200 157.543,213.560 158.083,214.000 158.400 C 214.440 158.717,214.800 159.297,214.800 159.688 C 214.800 160.080,214.980 160.400,215.200 160.400 C 215.420 160.400,215.600 160.670,215.600 161.000 C 215.600 161.330,215.780 161.600,216.000 161.600 C 216.220 161.600,216.400 161.330,216.400 161.000 C 216.400 160.670,216.220 160.400,216.000 160.400 C 215.780 160.400,215.600 160.164,215.600 159.875 C 215.600 159.587,215.240 158.964,214.800 158.492 C 214.360 158.020,214.000 157.422,214.000 157.164 C 214.000 156.905,213.684 156.403,213.297 156.047 C 212.911 155.691,212.340 154.905,212.030 154.300 C 211.719 153.695,211.315 153.200,211.132 153.200 C 210.950 153.200,210.800 152.917,210.800 152.571 C 210.800 152.226,210.543 151.686,210.229 151.371 C 209.649 150.792,209.200 150.632,209.200 151.005 M190.946 152.712 C 191.094 152.952,190.762 153.602,190.208 154.156 C 189.206 155.158,188.897 156.000,189.532 156.000 C 189.715 156.000,190.106 155.550,190.400 155.000 C 190.694 154.450,191.085 154.000,191.268 154.000 C 191.767 154.000,191.667 152.889,191.138 152.562 C 190.862 152.391,190.785 152.451,190.946 152.712 M187.936 157.600 C 187.644 158.260,187.269 158.800,187.102 158.800 C 186.936 158.800,186.800 159.036,186.800 159.325 C 186.800 159.613,186.440 160.236,186.000 160.708 C 185.138 161.634,184.956 162.400,185.600 162.400 C 185.820 162.400,186.000 162.130,186.000 161.800 C 186.000 161.470,186.180 161.200,186.400 161.200 C 186.620 161.200,186.800 160.930,186.800 160.600 C 186.800 160.270,186.980 160.000,187.200 160.000 C 187.420 160.000,187.600 159.730,187.600 159.400 C 187.600 159.070,187.780 158.800,188.000 158.800 C 188.220 158.800,188.400 158.440,188.400 158.000 C 188.400 157.560,188.580 157.200,188.800 157.200 C 189.020 157.200,189.200 157.020,189.200 156.800 C 189.200 155.969,188.447 156.446,187.936 157.600 M216.400 162.400 C 216.400 162.620,216.580 162.800,216.800 162.800 C 217.020 162.800,217.200 163.070,217.200 163.400 C 217.200 163.730,217.380 164.000,217.600 164.000 C 218.182 164.000,218.090 163.232,217.429 162.571 C 216.758 161.901,216.400 161.842,216.400 162.400 M184.069 163.639 C 183.780 164.100,183.649 164.582,183.776 164.710 C 184.015 164.948,185.165 163.636,185.187 163.100 C 185.212 162.511,184.584 162.814,184.069 163.639 M230.800 163.453 C 230.800 164.600,232.852 165.999,234.533 166.000 C 236.190 166.000,236.485 165.039,234.854 164.954 C 232.314 164.821,233.442 163.891,236.403 163.677 C 240.081 163.411,238.809 162.800,234.576 162.800 C 231.349 162.800,230.800 162.895,230.800 163.453 M239.296 164.089 C 239.386 164.358,239.851 164.558,240.330 164.533 C 240.808 164.509,241.560 164.469,242.000 164.444 C 243.647 164.353,242.726 163.600,240.967 163.600 C 239.700 163.600,239.184 163.751,239.296 164.089 M218.166 164.900 C 218.295 165.175,218.511 165.715,218.646 166.100 C 218.782 166.485,219.052 166.800,219.247 166.800 C 219.441 166.800,219.600 167.070,219.600 167.400 C 219.600 167.730,219.780 168.000,220.000 168.000 C 220.546 168.000,220.524 167.907,219.526 166.038 C 218.758 164.599,217.558 163.595,218.166 164.900 M243.709 164.900 C 243.817 165.208,244.444 165.355,245.342 165.283 C 246.163 165.217,246.800 165.348,246.800 165.583 C 246.800 165.812,247.160 166.000,247.600 166.000 C 248.040 166.000,248.400 165.820,248.400 165.600 C 248.400 165.380,248.051 165.200,247.624 165.200 C 247.197 165.200,246.736 165.020,246.600 164.800 C 246.225 164.194,243.494 164.288,243.709 164.900 M182.336 166.400 C 182.044 167.060,181.669 167.600,181.502 167.600 C 181.336 167.600,181.200 167.870,181.200 168.200 C 181.200 168.530,181.380 168.800,181.600 168.800 C 181.820 168.800,182.000 168.530,182.000 168.200 C 182.000 167.870,182.180 167.600,182.400 167.600 C 182.620 167.600,182.800 167.240,182.800 166.800 C 182.800 166.360,182.980 166.000,183.200 166.000 C 183.420 166.000,183.600 165.820,183.600 165.600 C 183.600 164.769,182.847 165.246,182.336 166.400 M236.400 166.400 C 236.400 166.620,236.760 166.800,237.200 166.800 C 237.640 166.800,238.000 166.980,238.000 167.200 C 238.000 167.420,238.360 167.600,238.800 167.600 C 239.240 167.600,239.600 167.750,239.600 167.932 C 239.600 168.115,240.093 168.520,240.695 168.832 C 242.105 169.563,244.837 172.295,245.568 173.705 C 246.166 174.859,246.590 175.064,247.002 174.397 C 247.139 174.176,246.969 173.886,246.625 173.754 C 246.281 173.622,246.000 173.211,246.000 172.840 C 246.000 171.678,242.370 168.602,238.505 166.489 C 237.423 165.897,236.400 165.854,236.400 166.400 M248.800 166.400 C 248.800 166.620,249.053 166.800,249.362 166.800 C 250.117 166.800,253.192 168.428,254.084 169.300 C 254.478 169.685,254.954 170.000,255.143 170.000 C 255.607 170.000,259.600 174.019,259.600 174.486 C 259.600 174.891,260.604 176.000,260.971 176.000 C 261.097 176.000,261.200 175.730,261.200 175.400 C 261.200 175.070,261.020 174.800,260.800 174.800 C 260.580 174.800,260.400 174.526,260.400 174.191 C 260.400 173.450,256.225 169.200,255.497 169.200 C 255.211 169.200,254.717 168.840,254.400 168.400 C 254.083 167.960,253.503 167.600,253.112 167.600 C 252.720 167.600,252.400 167.420,252.400 167.200 C 252.400 166.980,252.040 166.800,251.600 166.800 C 251.160 166.800,250.800 166.620,250.800 166.400 C 250.800 166.180,250.350 166.000,249.800 166.000 C 249.250 166.000,248.800 166.180,248.800 166.400 M220.400 168.800 C 220.400 169.020,220.580 169.200,220.800 169.200 C 221.020 169.200,221.200 169.560,221.200 170.000 C 221.200 170.440,221.380 170.800,221.600 170.800 C 221.820 170.800,222.000 171.070,222.000 171.400 C 222.000 171.730,222.180 172.000,222.400 172.000 C 222.620 172.000,222.800 171.730,222.800 171.400 C 222.800 171.070,222.664 170.800,222.498 170.800 C 222.331 170.800,221.956 170.260,221.664 169.600 C 221.153 168.446,220.400 167.969,220.400 168.800 M180.100 169.798 C 179.825 170.111,179.600 170.644,179.600 170.983 C 179.600 171.322,179.420 171.600,179.200 171.600 C 178.980 171.600,178.800 171.870,178.800 172.200 C 178.800 172.530,178.980 172.800,179.200 172.800 C 179.420 172.800,179.600 172.530,179.600 172.200 C 179.600 171.870,179.759 171.600,179.953 171.600 C 180.148 171.600,180.418 171.285,180.554 170.900 C 180.689 170.515,180.905 169.975,181.034 169.700 C 181.348 169.026,180.722 169.092,180.100 169.798 M222.800 172.800 C 222.800 173.020,222.980 173.200,223.200 173.200 C 223.420 173.200,223.600 173.560,223.600 174.000 C 223.600 174.440,223.767 174.800,223.972 174.800 C 224.177 174.800,224.415 175.205,224.502 175.700 C 224.646 176.524,224.687 176.538,224.988 175.860 C 225.169 175.452,225.155 175.003,224.958 174.860 C 224.760 174.717,224.344 174.105,224.032 173.500 C 223.470 172.410,222.800 172.029,222.800 172.800 M178.000 173.800 C 178.000 174.130,178.180 174.400,178.400 174.400 C 178.620 174.400,178.800 174.130,178.800 173.800 C 178.800 173.470,178.620 173.200,178.400 173.200 C 178.180 173.200,178.000 173.470,178.000 173.800 M176.900 175.398 C 176.625 175.711,176.400 176.244,176.400 176.583 C 176.400 176.922,176.220 177.200,176.000 177.200 C 175.780 177.200,175.600 177.470,175.600 177.800 C 175.600 178.130,175.780 178.400,176.000 178.400 C 176.220 178.400,176.400 178.130,176.400 177.800 C 176.400 177.470,176.580 177.200,176.800 177.200 C 177.020 177.200,177.200 176.840,177.200 176.400 C 177.200 175.960,177.380 175.600,177.600 175.600 C 177.820 175.600,178.000 175.420,178.000 175.200 C 178.000 174.637,177.489 174.729,176.900 175.398 M246.800 175.776 C 246.800 176.093,246.961 176.452,247.158 176.574 C 247.570 176.829,248.066 175.800,247.706 175.439 C 247.277 175.010,246.800 175.187,246.800 175.776 M225.200 177.000 C 225.200 177.330,225.380 177.600,225.600 177.600 C 225.820 177.600,226.000 177.330,226.000 177.000 C 226.000 176.670,225.820 176.400,225.600 176.400 C 225.380 176.400,225.200 176.670,225.200 177.000 M261.065 176.668 C 260.918 176.816,261.066 177.346,261.394 177.847 C 261.722 178.348,261.893 179.014,261.772 179.327 C 261.652 179.641,261.834 180.177,262.177 180.520 C 262.659 181.001,262.800 182.058,262.800 185.171 C 262.800 187.590,262.960 189.200,263.200 189.200 C 263.441 189.200,263.600 187.541,263.600 185.024 C 263.600 182.671,263.425 180.739,263.200 180.600 C 262.980 180.464,262.800 179.823,262.800 179.176 C 262.800 178.529,262.620 178.000,262.400 178.000 C 262.180 178.000,262.000 177.640,262.000 177.200 C 262.000 176.402,261.574 176.160,261.065 176.668 M247.600 178.543 C 247.600 180.173,248.370 180.961,248.460 179.424 C 248.493 178.861,248.538 178.190,248.560 177.933 C 248.582 177.677,248.375 177.392,248.100 177.300 C 247.763 177.188,247.600 177.593,247.600 178.543 M226.809 179.700 C 226.804 180.085,226.980 180.400,227.200 180.400 C 227.420 180.400,227.600 180.760,227.600 181.200 C 227.600 181.640,227.780 182.000,228.000 182.000 C 228.634 182.000,228.451 181.088,227.600 180.000 C 226.966 179.190,226.816 179.133,226.809 179.700 M173.274 182.038 C 172.310 183.844,172.198 184.400,172.800 184.400 C 173.020 184.400,173.200 184.040,173.200 183.600 C 173.200 183.160,173.380 182.800,173.600 182.800 C 173.820 182.800,174.000 182.440,174.000 182.000 C 174.000 181.560,174.180 181.200,174.400 181.200 C 174.620 181.200,174.800 181.020,174.800 180.800 C 174.800 179.921,174.102 180.487,173.274 182.038 M228.515 182.676 C 228.371 183.053,228.465 183.422,228.728 183.509 C 228.988 183.596,229.200 184.012,229.200 184.433 C 229.200 184.855,229.380 185.200,229.600 185.200 C 229.820 185.200,230.000 185.560,230.000 186.000 C 230.000 186.440,230.180 186.800,230.400 186.800 C 230.620 186.800,230.800 187.160,230.800 187.600 C 230.800 188.040,230.980 188.400,231.200 188.400 C 231.420 188.400,231.600 188.760,231.600 189.200 C 231.600 189.640,231.780 190.000,232.000 190.000 C 232.220 190.000,232.400 189.640,232.400 189.200 C 232.400 188.760,232.265 188.399,232.100 188.397 C 231.741 188.393,230.800 186.456,230.800 185.720 C 230.800 185.434,230.620 185.200,230.400 185.200 C 230.180 185.200,230.000 184.917,230.000 184.571 C 230.000 184.226,229.728 183.671,229.396 183.339 C 229.064 183.007,228.895 182.570,229.020 182.368 C 229.145 182.165,229.141 182.000,229.011 182.000 C 228.881 182.000,228.658 182.304,228.515 182.676 M171.742 184.706 C 171.888 184.942,171.736 185.407,171.404 185.739 C 171.072 186.071,170.800 186.615,170.800 186.948 C 170.800 187.281,170.620 187.664,170.400 187.800 C 170.180 187.936,170.000 188.307,170.000 188.624 C 170.000 188.941,170.180 189.200,170.400 189.200 C 170.620 189.200,170.800 188.840,170.800 188.400 C 170.800 187.960,170.980 187.600,171.200 187.600 C 171.420 187.600,171.600 187.240,171.600 186.800 C 171.600 186.360,171.780 186.000,172.000 186.000 C 172.551 186.000,172.505 184.912,171.938 184.562 C 171.664 184.393,171.585 184.451,171.742 184.706 M247.898 184.636 C 247.475 185.058,247.527 188.000,247.957 188.000 C 248.154 188.000,248.407 187.759,248.520 187.465 C 248.804 186.724,248.264 184.269,247.898 184.636 M246.800 189.400 C 246.800 190.388,247.342 190.741,247.778 190.036 C 248.067 189.568,247.624 188.400,247.157 188.400 C 246.961 188.400,246.800 188.850,246.800 189.400 M261.842 189.434 C 261.709 189.780,261.709 190.494,261.841 191.020 C 261.994 191.632,261.849 192.208,261.437 192.620 C 261.082 192.975,260.892 193.425,261.013 193.621 C 261.134 193.817,260.955 194.402,260.615 194.921 C 260.275 195.439,260.118 195.984,260.265 196.132 C 260.774 196.640,261.200 196.398,261.200 195.600 C 261.200 195.160,261.380 194.800,261.600 194.800 C 261.820 194.800,262.000 194.260,262.000 193.600 C 262.000 192.940,262.180 192.400,262.400 192.400 C 262.896 192.400,262.934 189.330,262.442 189.026 C 262.245 188.904,261.975 189.088,261.842 189.434 M169.072 190.776 C 168.300 192.324,168.236 192.800,168.800 192.800 C 169.020 192.800,169.200 192.476,169.200 192.080 C 169.200 191.684,169.400 191.160,169.645 190.915 C 169.890 190.670,170.012 190.236,169.917 189.950 C 169.818 189.655,169.453 190.011,169.072 190.776 M246.000 191.600 C 246.000 192.040,245.820 192.400,245.600 192.400 C 245.380 192.400,245.200 192.760,245.200 193.200 C 245.200 193.640,245.020 194.000,244.800 194.000 C 244.580 194.000,244.400 194.360,244.400 194.800 C 244.400 195.240,244.241 195.600,244.046 195.600 C 243.851 195.600,243.404 196.205,243.053 196.945 C 242.702 197.685,242.141 198.517,241.807 198.794 C 241.473 199.071,241.200 199.458,241.200 199.653 C 241.200 199.848,240.660 200.572,240.000 201.263 C 239.340 201.954,238.800 202.674,238.800 202.864 C 238.800 203.322,230.511 211.600,230.053 211.600 C 229.857 211.600,228.955 212.320,228.048 213.200 C 227.141 214.080,226.246 214.800,226.059 214.800 C 225.872 214.800,225.154 215.340,224.463 216.000 C 223.772 216.660,222.975 217.200,222.692 217.200 C 222.409 217.200,221.917 217.560,221.600 218.000 C 221.283 218.440,220.786 218.800,220.495 218.800 C 220.204 218.800,219.580 219.160,219.108 219.600 C 218.636 220.040,218.013 220.400,217.725 220.400 C 217.436 220.400,217.200 220.580,217.200 220.800 C 217.200 221.020,216.840 221.200,216.400 221.200 C 215.960 221.200,215.600 221.338,215.600 221.506 C 215.600 221.674,214.925 222.118,214.100 222.494 C 213.275 222.869,212.150 223.429,211.600 223.738 C 209.461 224.939,207.099 226.000,206.562 226.000 C 206.253 226.000,206.000 226.180,206.000 226.400 C 206.000 226.620,205.640 226.800,205.200 226.800 C 204.760 226.800,204.400 226.980,204.400 227.200 C 204.400 227.420,203.961 227.600,203.424 227.600 C 202.887 227.600,202.336 227.780,202.200 228.000 C 202.064 228.220,201.603 228.400,201.176 228.400 C 200.749 228.400,200.400 228.580,200.400 228.800 C 200.400 229.020,199.860 229.200,199.200 229.200 C 198.540 229.200,198.000 229.380,198.000 229.600 C 198.000 229.820,197.561 230.000,197.024 230.000 C 196.487 230.000,195.936 230.180,195.800 230.400 C 195.664 230.620,195.023 230.800,194.376 230.800 C 193.729 230.800,193.200 230.980,193.200 231.200 C 193.200 231.420,192.581 231.600,191.824 231.600 C 191.067 231.600,190.336 231.780,190.200 232.000 C 190.064 232.220,189.164 232.400,188.200 232.400 C 187.236 232.400,186.336 232.580,186.200 232.800 C 186.064 233.020,185.254 233.200,184.400 233.200 C 182.355 233.200,182.015 233.833,183.895 234.138 C 184.897 234.300,185.677 234.179,186.313 233.763 C 186.906 233.375,187.666 233.239,188.376 233.395 C 189.135 233.562,189.707 233.436,190.134 233.009 C 190.551 232.591,191.111 232.463,191.780 232.631 C 192.515 232.815,192.862 232.703,193.047 232.222 C 193.235 231.732,193.593 231.623,194.417 231.804 C 195.233 231.983,195.636 231.864,195.917 231.363 C 196.147 230.951,196.556 230.774,196.939 230.921 C 197.290 231.056,197.851 230.892,198.185 230.558 C 198.520 230.223,198.987 230.068,199.222 230.214 C 199.458 230.359,199.988 230.173,200.400 229.800 C 200.812 229.427,201.342 229.241,201.578 229.386 C 201.813 229.532,202.116 229.364,202.250 229.013 C 202.401 228.621,202.768 228.463,203.205 228.602 C 203.596 228.726,204.203 228.540,204.555 228.188 C 204.906 227.837,205.364 227.654,205.572 227.783 C 205.781 227.912,206.128 227.700,206.345 227.312 C 206.562 226.924,206.864 226.731,207.016 226.883 C 207.319 227.185,211.220 225.298,211.694 224.620 C 211.856 224.389,211.991 224.340,211.994 224.510 C 212.003 224.980,214.400 223.641,214.400 223.166 C 214.400 222.939,214.591 222.871,214.825 223.016 C 215.059 223.160,215.554 223.004,215.925 222.668 C 216.296 222.332,216.780 222.012,217.000 221.956 C 217.836 221.745,220.000 220.305,220.000 219.960 C 220.000 219.762,220.332 219.600,220.738 219.600 C 221.144 219.600,221.802 219.240,222.200 218.800 C 222.598 218.360,223.095 218.000,223.304 218.000 C 223.513 218.000,224.250 217.558,224.942 217.017 C 225.634 216.476,227.072 215.351,228.139 214.517 C 233.565 210.271,242.800 200.463,242.800 198.946 C 242.800 198.646,242.963 198.400,243.161 198.400 C 243.621 198.400,247.199 191.332,246.894 191.027 C 246.423 190.557,246.000 190.828,246.000 191.600 M233.200 193.000 C 233.200 193.330,233.380 193.600,233.600 193.600 C 233.820 193.600,234.000 193.330,234.000 193.000 C 234.000 192.670,233.820 192.400,233.600 192.400 C 233.380 192.400,233.200 192.670,233.200 193.000 M167.600 193.976 C 167.600 194.403,167.420 194.864,167.200 195.000 C 166.980 195.136,166.800 195.597,166.800 196.024 C 166.800 196.451,166.980 196.800,167.200 196.800 C 167.420 196.800,167.600 196.350,167.600 195.800 C 167.600 195.250,167.780 194.800,168.000 194.800 C 168.220 194.800,168.400 194.440,168.400 194.000 C 168.400 193.560,168.220 193.200,168.000 193.200 C 167.780 193.200,167.600 193.549,167.600 193.976 M234.000 194.800 C 234.000 195.240,234.180 195.600,234.400 195.600 C 234.620 195.600,234.800 196.050,234.800 196.600 C 234.800 197.150,234.980 197.600,235.200 197.600 C 235.420 197.600,235.600 197.251,235.600 196.824 C 235.600 196.397,235.420 195.936,235.200 195.800 C 234.980 195.664,234.800 195.203,234.800 194.776 C 234.800 194.349,234.620 194.000,234.400 194.000 C 234.180 194.000,234.000 194.360,234.000 194.800 M259.553 197.100 C 259.527 197.265,259.521 197.518,259.540 197.662 C 259.559 197.806,259.321 198.134,259.011 198.391 C 258.701 198.648,258.546 199.115,258.667 199.429 C 258.787 199.743,258.704 200.000,258.482 200.000 C 258.053 200.000,256.231 202.727,256.212 203.400 C 256.205 203.620,255.705 204.221,255.100 204.736 C 254.495 205.250,254.000 205.860,254.000 206.091 C 254.000 206.537,252.864 207.886,247.287 214.062 C 245.369 216.186,243.616 217.941,243.391 217.962 C 242.461 218.049,239.947 220.507,240.363 220.923 C 240.656 221.216,241.011 221.079,241.538 220.471 C 241.954 219.992,242.471 219.600,242.687 219.600 C 243.174 219.600,251.600 211.175,251.600 210.689 C 251.600 210.495,252.320 209.646,253.200 208.800 C 254.080 207.954,254.800 207.067,254.800 206.828 C 254.800 206.588,255.340 205.828,256.000 205.137 C 256.660 204.446,257.200 203.638,257.200 203.341 C 257.200 203.043,257.380 202.800,257.600 202.800 C 257.820 202.800,258.000 202.522,258.000 202.183 C 258.000 201.844,258.360 201.180,258.800 200.708 C 259.240 200.236,259.600 199.534,259.600 199.148 C 259.600 198.763,259.780 198.336,260.000 198.200 C 260.220 198.064,260.400 197.693,260.400 197.376 C 260.400 196.793,259.640 196.546,259.553 197.100 M166.000 198.000 C 166.000 198.440,166.180 198.800,166.400 198.800 C 166.620 198.800,166.800 198.440,166.800 198.000 C 166.800 197.560,166.620 197.200,166.400 197.200 C 166.180 197.200,166.000 197.560,166.000 198.000 M235.600 198.800 C 235.600 199.240,235.780 199.600,236.000 199.600 C 236.220 199.600,236.400 199.240,236.400 198.800 C 236.400 198.360,236.220 198.000,236.000 198.000 C 235.780 198.000,235.600 198.360,235.600 198.800 M165.441 199.800 C 165.276 200.240,164.975 200.913,164.771 201.295 C 164.283 202.209,164.298 203.200,164.800 203.200 C 165.020 203.200,165.200 202.765,165.200 202.233 C 165.200 201.702,165.398 201.201,165.639 201.120 C 165.881 201.040,166.002 200.530,165.910 199.987 C 165.753 199.071,165.719 199.058,165.441 199.800 M169.500 202.229 C 169.335 202.396,169.200 202.989,169.200 203.547 C 169.200 204.275,169.322 204.438,169.634 204.126 C 169.872 203.888,170.007 203.294,169.934 202.808 C 169.860 202.322,169.665 202.061,169.500 202.229 M231.645 206.212 C 229.360 208.529,227.577 210.511,227.682 210.615 C 227.884 210.817,236.400 202.627,236.400 202.232 C 236.400 201.562,235.424 202.379,231.645 206.212 M146.100 204.270 C 145.605 204.615,145.200 205.146,145.200 205.449 C 145.200 205.752,145.048 206.000,144.863 206.000 C 144.677 206.000,144.095 206.855,143.568 207.900 C 143.042 208.945,142.481 209.896,142.321 210.014 C 141.762 210.426,138.800 216.519,138.800 217.255 C 138.800 217.665,138.620 218.000,138.400 218.000 C 138.180 218.000,138.000 218.619,138.000 219.376 C 138.000 220.133,137.820 220.864,137.600 221.000 C 137.364 221.146,137.200 223.530,137.200 226.800 C 137.200 230.070,137.364 232.454,137.600 232.600 C 137.820 232.736,138.000 233.343,138.000 233.948 C 138.000 234.554,138.315 235.398,138.700 235.825 C 139.085 236.251,139.660 237.103,139.978 237.719 C 140.754 239.222,143.159 242.000,143.684 242.000 C 143.916 242.000,144.414 242.355,144.790 242.788 C 145.651 243.781,149.831 246.000,150.841 246.000 C 151.258 246.000,151.600 246.180,151.600 246.400 C 151.600 246.620,151.949 246.800,152.376 246.800 C 152.803 246.800,153.264 246.980,153.400 247.200 C 153.777 247.809,156.907 247.714,156.691 247.100 C 156.585 246.797,155.961 246.644,155.105 246.711 C 154.138 246.788,153.621 246.633,153.462 246.218 C 153.331 245.877,152.967 245.715,152.625 245.846 C 152.293 245.973,151.741 245.798,151.399 245.456 C 151.057 245.114,150.535 244.927,150.240 245.040 C 149.945 245.153,149.597 244.969,149.467 244.630 C 149.337 244.291,148.977 244.111,148.667 244.230 C 148.357 244.349,147.996 244.166,147.864 243.823 C 147.733 243.480,147.378 243.200,147.076 243.200 C 146.312 243.200,140.556 237.594,140.233 236.536 C 140.088 236.061,139.706 235.454,139.385 235.187 C 139.063 234.920,138.800 234.274,138.800 233.751 C 138.800 233.228,138.665 232.800,138.500 232.800 C 137.933 232.800,138.150 221.452,138.729 220.842 C 139.022 220.534,139.157 219.883,139.032 219.384 C 138.891 218.823,139.010 218.405,139.346 218.276 C 139.860 218.079,140.575 215.914,140.446 214.946 C 140.413 214.696,140.656 214.387,140.986 214.261 C 141.329 214.129,141.485 213.767,141.350 213.415 C 141.221 213.077,141.318 212.800,141.567 212.800 C 141.816 212.800,142.190 212.395,142.397 211.900 C 142.605 211.405,143.322 210.280,143.990 209.400 C 144.658 208.520,145.315 207.485,145.449 207.100 C 145.584 206.715,145.839 206.400,146.017 206.400 C 146.601 206.400,146.671 207.786,146.121 208.441 C 145.754 208.878,145.692 209.380,145.926 210.012 C 146.313 211.058,147.600 209.155,147.600 207.539 C 147.600 207.132,147.780 206.800,148.000 206.800 C 148.220 206.800,148.400 206.080,148.400 205.200 C 148.400 203.407,147.727 203.135,146.100 204.270 M163.867 204.267 C 163.452 204.682,163.553 206.000,164.000 206.000 C 164.220 206.000,164.400 205.550,164.400 205.000 C 164.400 203.953,164.308 203.826,163.867 204.267 M168.700 205.029 C 168.535 205.196,168.400 205.933,168.400 206.667 C 168.400 207.400,168.220 208.000,168.000 208.000 C 167.780 208.000,167.600 208.810,167.600 209.800 C 167.600 210.802,167.412 211.600,167.176 211.600 C 166.417 211.600,166.916 214.577,167.700 214.726 C 168.319 214.843,168.400 214.490,168.400 211.663 C 168.400 209.751,168.572 208.409,168.827 208.324 C 169.070 208.243,169.200 207.436,169.127 206.453 C 169.057 205.503,168.865 204.862,168.700 205.029 M163.067 207.067 C 162.648 207.485,162.755 209.200,163.200 209.200 C 163.420 209.200,163.600 208.660,163.600 208.000 C 163.600 206.757,163.519 206.615,163.067 207.067 M162.300 210.229 C 162.135 210.396,162.000 211.259,162.000 212.147 C 162.000 213.291,162.124 213.636,162.427 213.333 C 162.662 213.098,162.797 212.235,162.727 211.415 C 162.657 210.595,162.465 210.061,162.300 210.229 M225.000 212.000 C 224.368 212.660,223.614 213.200,223.325 213.200 C 223.036 213.200,222.800 213.350,222.800 213.532 C 222.800 213.715,222.350 214.106,221.800 214.400 C 220.729 214.973,220.474 215.600,221.312 215.600 C 221.593 215.600,222.083 215.240,222.400 214.800 C 222.717 214.360,223.162 213.996,223.388 213.991 C 223.842 213.980,226.800 211.422,226.800 211.039 C 226.800 210.490,226.078 210.875,225.000 212.000 M145.167 211.367 C 145.038 211.495,145.044 218.980,145.174 220.500 C 145.188 220.665,145.380 220.800,145.600 220.800 C 145.844 220.800,146.000 218.933,146.000 216.000 C 146.000 211.792,145.808 210.726,145.167 211.367 M167.100 215.433 C 166.935 215.598,166.800 216.164,166.800 216.690 C 166.800 217.226,166.624 217.538,166.400 217.400 C 166.143 217.241,166.000 218.604,166.000 221.200 C 166.000 223.914,166.138 225.162,166.418 224.989 C 166.699 224.816,166.797 225.698,166.718 227.665 L 166.600 230.600 165.100 230.724 C 162.406 230.947,163.525 231.600,166.600 231.600 C 169.551 231.600,170.592 231.064,168.608 230.566 L 167.617 230.318 167.508 222.725 C 167.449 218.549,167.265 215.267,167.100 215.433 M219.100 216.157 C 218.715 216.449,218.400 216.803,218.400 216.944 C 218.400 217.401,219.242 217.215,219.829 216.629 C 220.888 215.569,220.340 215.215,219.100 216.157 M161.442 217.100 C 161.320 217.705,161.377 218.830,161.569 219.600 C 161.885 220.868,161.922 220.765,161.959 218.500 C 162.003 215.838,161.804 215.301,161.442 217.100 M216.500 217.744 C 216.005 217.989,215.600 218.327,215.600 218.495 C 215.600 218.663,215.330 218.800,215.000 218.800 C 214.670 218.800,214.400 218.980,214.400 219.200 C 214.400 219.420,214.670 219.600,215.000 219.600 C 215.330 219.600,215.600 219.464,215.600 219.298 C 215.600 219.131,216.140 218.756,216.800 218.464 C 217.460 218.172,218.000 217.768,218.000 217.566 C 218.000 217.122,217.679 217.160,216.500 217.744 M212.800 220.000 C 212.800 220.220,213.070 220.400,213.400 220.400 C 213.730 220.400,214.000 220.220,214.000 220.000 C 214.000 219.780,213.730 219.600,213.400 219.600 C 213.070 219.600,212.800 219.780,212.800 220.000 M211.400 220.800 C 211.264 221.020,210.803 221.200,210.376 221.200 C 209.949 221.200,209.600 221.380,209.600 221.600 C 209.600 221.820,209.915 221.994,210.300 221.987 C 211.441 221.967,213.142 220.400,212.024 220.400 C 211.817 220.400,211.536 220.580,211.400 220.800 M146.000 222.032 C 146.000 224.022,151.953 230.800,153.700 230.800 C 154.038 230.800,154.417 231.067,154.542 231.393 C 154.667 231.720,155.023 231.889,155.333 231.770 C 155.643 231.651,156.003 231.831,156.133 232.170 C 156.279 232.550,156.624 232.689,157.034 232.531 C 157.446 232.374,157.844 232.535,158.079 232.956 C 158.326 233.396,158.731 233.549,159.231 233.390 C 159.691 233.244,160.265 233.408,160.653 233.796 C 161.010 234.153,161.565 234.346,161.884 234.223 C 162.204 234.100,162.731 234.000,163.056 234.000 C 163.381 234.000,163.536 233.820,163.400 233.600 C 163.264 233.380,162.544 233.200,161.800 233.200 C 161.056 233.200,160.336 233.020,160.200 232.800 C 160.064 232.580,159.513 232.400,158.976 232.400 C 158.439 232.400,158.000 232.220,158.000 232.000 C 158.000 231.780,157.584 231.600,157.075 231.600 C 156.567 231.600,155.764 231.240,155.292 230.800 C 154.820 230.360,154.226 230.000,153.972 230.000 C 152.803 230.000,146.800 223.140,146.800 221.805 C 146.800 221.472,146.620 221.200,146.400 221.200 C 146.180 221.200,146.000 221.574,146.000 222.032 M208.000 222.400 C 208.000 222.620,208.270 222.800,208.600 222.800 C 208.930 222.800,209.200 222.620,209.200 222.400 C 209.200 222.180,208.930 222.000,208.600 222.000 C 208.270 222.000,208.000 222.180,208.000 222.400 M240.400 223.734 C 240.400 224.626,240.175 225.201,239.765 225.358 C 239.263 225.551,239.187 225.939,239.402 227.215 C 239.588 228.314,239.507 229.030,239.147 229.464 C 238.857 229.814,238.671 230.594,238.734 231.198 C 238.810 231.920,238.627 232.381,238.197 232.546 C 237.769 232.710,237.629 233.060,237.789 233.564 C 237.923 233.987,237.845 234.448,237.616 234.590 C 237.387 234.731,237.200 235.267,237.200 235.781 C 237.200 236.294,236.933 236.817,236.607 236.942 C 236.269 237.072,236.115 237.435,236.250 237.785 C 236.379 238.123,236.305 238.400,236.083 238.400 C 235.862 238.400,235.299 239.133,234.832 240.028 C 232.583 244.344,224.488 252.738,221.078 254.292 C 220.485 254.562,220.000 254.975,220.000 255.209 C 220.000 255.443,219.704 255.582,219.341 255.518 C 218.979 255.453,218.604 255.625,218.508 255.900 C 218.231 256.694,219.757 256.485,220.708 255.600 C 221.180 255.160,221.804 254.800,222.095 254.800 C 222.386 254.800,222.883 254.440,223.200 254.000 C 223.517 253.560,224.009 253.200,224.293 253.200 C 225.020 253.200,233.200 244.939,233.200 244.205 C 233.200 243.872,233.350 243.600,233.532 243.600 C 233.715 243.600,234.120 243.105,234.432 242.500 C 234.745 241.895,235.315 241.051,235.700 240.625 C 236.085 240.198,236.400 239.613,236.400 239.325 C 236.400 239.036,236.580 238.800,236.800 238.800 C 237.020 238.800,237.200 238.451,237.200 238.024 C 237.200 237.597,237.380 237.136,237.600 237.000 C 237.820 236.864,238.000 236.313,238.000 235.776 C 238.000 235.239,238.180 234.800,238.400 234.800 C 238.620 234.800,238.800 234.271,238.800 233.624 C 238.800 232.977,238.980 232.336,239.200 232.200 C 239.420 232.064,239.600 231.524,239.600 231.000 C 239.600 230.476,239.780 229.936,240.000 229.800 C 240.220 229.664,240.400 228.584,240.400 227.400 C 240.400 226.216,240.580 225.136,240.800 225.000 C 241.020 224.864,241.200 224.324,241.200 223.800 C 241.200 223.276,241.020 222.736,240.800 222.600 C 240.563 222.453,240.400 222.915,240.400 223.734 M206.200 223.200 C 206.336 223.420,206.707 223.600,207.024 223.600 C 207.341 223.600,207.600 223.420,207.600 223.200 C 207.600 222.980,207.229 222.800,206.776 222.800 C 206.323 222.800,206.064 222.980,206.200 223.200 M204.400 224.000 C 204.400 224.220,204.760 224.400,205.200 224.400 C 205.640 224.400,206.000 224.220,206.000 224.000 C 206.000 223.780,205.640 223.600,205.200 223.600 C 204.760 223.600,204.400 223.780,204.400 224.000 M202.400 224.800 C 202.400 225.020,202.659 225.200,202.976 225.200 C 203.293 225.200,203.664 225.020,203.800 224.800 C 203.936 224.580,203.677 224.400,203.224 224.400 C 202.771 224.400,202.400 224.580,202.400 224.800 M200.600 225.600 C 200.736 225.820,201.107 226.000,201.424 226.000 C 201.741 226.000,202.000 225.820,202.000 225.600 C 202.000 225.380,201.629 225.200,201.176 225.200 C 200.723 225.200,200.464 225.380,200.600 225.600 M198.400 226.400 C 198.400 226.620,198.850 226.800,199.400 226.800 C 199.950 226.800,200.400 226.620,200.400 226.400 C 200.400 226.180,199.950 226.000,199.400 226.000 C 198.850 226.000,198.400 226.180,198.400 226.400 M162.000 227.800 C 162.000 228.570,162.180 229.200,162.400 229.200 C 162.620 229.200,162.800 228.570,162.800 227.800 C 162.800 227.030,162.620 226.400,162.400 226.400 C 162.180 226.400,162.000 227.030,162.000 227.800 M196.400 227.200 C 196.400 227.420,196.760 227.600,197.200 227.600 C 197.640 227.600,198.000 227.420,198.000 227.200 C 198.000 226.980,197.640 226.800,197.200 226.800 C 196.760 226.800,196.400 226.980,196.400 227.200 M193.600 228.000 C 193.600 228.220,194.039 228.400,194.576 228.400 C 195.113 228.400,195.664 228.220,195.800 228.000 C 195.944 227.767,195.537 227.600,194.824 227.600 C 194.151 227.600,193.600 227.780,193.600 228.000 M190.800 228.800 C 190.800 229.020,191.160 229.200,191.600 229.200 C 192.040 229.200,192.400 229.020,192.400 228.800 C 192.400 228.580,192.040 228.400,191.600 228.400 C 191.160 228.400,190.800 228.580,190.800 228.800 M187.600 229.600 C 187.600 229.820,188.140 230.000,188.800 230.000 C 189.460 230.000,190.000 229.820,190.000 229.600 C 190.000 229.380,189.460 229.200,188.800 229.200 C 188.140 229.200,187.600 229.380,187.600 229.600 M183.600 230.400 C 183.600 230.620,184.320 230.800,185.200 230.800 C 186.080 230.800,186.800 230.620,186.800 230.400 C 186.800 230.180,186.080 230.000,185.200 230.000 C 184.320 230.000,183.600 230.180,183.600 230.400 M176.000 231.200 C 176.000 231.686,180.669 231.686,181.800 231.200 C 182.337 230.969,181.516 230.847,179.300 230.828 C 177.348 230.811,176.000 230.963,176.000 231.200 M164.000 234.400 C 164.000 234.620,164.225 234.809,164.500 234.820 C 173.943 235.206,182.162 234.986,181.774 234.358 C 181.461 233.851,164.000 233.892,164.000 234.400 M158.094 247.483 C 156.530 247.784,157.558 248.400,159.624 248.400 C 161.558 248.400,162.225 247.925,160.967 247.443 C 160.300 247.187,159.584 247.197,158.094 247.483 M164.289 248.296 C 159.975 248.566,162.392 249.200,167.735 249.200 C 172.565 249.200,173.073 249.269,173.600 250.000 C 173.917 250.440,174.369 250.800,174.604 250.800 C 174.840 250.800,175.828 251.520,176.800 252.400 C 177.772 253.280,178.718 254.000,178.901 254.000 C 179.084 254.000,179.620 254.360,180.092 254.800 C 180.564 255.240,181.187 255.600,181.475 255.600 C 181.764 255.600,182.000 255.780,182.000 256.000 C 182.000 256.220,182.265 256.400,182.588 256.400 C 182.911 256.400,183.817 256.760,184.600 257.200 C 185.383 257.640,186.379 258.000,186.812 258.000 C 187.245 258.000,187.600 258.180,187.600 258.400 C 187.600 258.620,188.039 258.800,188.576 258.800 C 189.113 258.800,189.664 258.980,189.800 259.200 C 189.936 259.420,190.566 259.600,191.200 259.600 C 191.834 259.600,192.464 259.780,192.600 260.000 C 192.736 260.220,193.906 260.400,195.200 260.400 C 196.494 260.400,197.656 260.567,197.782 260.770 C 198.087 261.264,203.905 261.278,204.209 260.786 C 204.340 260.574,205.517 260.400,206.824 260.400 C 209.367 260.400,210.006 259.861,207.950 259.450 C 205.967 259.053,204.903 259.154,204.257 259.800 C 203.480 260.577,197.754 260.662,197.499 259.900 C 197.390 259.572,196.598 259.422,195.200 259.463 C 193.806 259.504,192.869 259.326,192.492 258.949 C 192.151 258.608,191.586 258.477,191.108 258.629 C 190.634 258.780,190.171 258.676,189.987 258.379 C 189.814 258.100,189.342 257.845,188.937 257.811 C 188.532 257.778,187.819 257.543,187.353 257.290 C 186.887 257.036,186.390 256.944,186.248 257.085 C 186.107 257.226,185.751 257.012,185.457 256.610 C 185.162 256.207,184.733 255.994,184.503 256.137 C 184.272 256.279,183.982 256.129,183.857 255.804 C 183.732 255.479,183.377 255.311,183.067 255.430 C 182.757 255.549,182.396 255.366,182.264 255.023 C 182.133 254.680,181.777 254.400,181.475 254.400 C 181.172 254.400,180.598 254.040,180.200 253.600 C 179.802 253.160,179.275 252.800,179.030 252.800 C 178.784 252.800,177.520 251.826,176.221 250.636 C 173.228 247.895,172.616 247.775,164.289 248.296 M217.056 256.278 C 216.605 256.728,216.781 257.200,217.400 257.200 C 217.730 257.200,218.000 257.031,218.000 256.824 C 218.000 256.319,217.375 255.958,217.056 256.278 M215.022 257.435 C 214.669 257.789,214.091 257.967,213.739 257.832 C 213.387 257.697,212.823 257.814,212.485 258.093 C 212.148 258.372,211.422 258.600,210.873 258.600 C 210.323 258.600,209.797 258.825,209.703 259.100 C 209.588 259.439,209.996 259.600,210.967 259.600 C 211.755 259.600,212.400 259.420,212.400 259.200 C 212.400 258.980,212.940 258.800,213.600 258.800 C 214.260 258.800,214.800 258.620,214.800 258.400 C 214.800 258.180,215.160 258.000,215.600 258.000 C 216.425 258.000,216.681 257.421,216.032 257.020 C 215.830 256.895,215.375 257.082,215.022 257.435 " stroke="none" fill="#68bfe1" fill-rule="evenodd"></path><path id="path1" d="M200.117 141.500 C 199.975 141.885,199.734 142.290,199.582 142.400 C 199.429 142.510,198.171 144.310,196.785 146.400 C 195.399 148.490,194.160 150.290,194.032 150.400 C 193.904 150.510,193.544 151.095,193.232 151.700 C 192.920 152.305,192.515 152.800,192.332 152.800 C 192.150 152.800,192.000 153.048,192.000 153.351 C 192.000 153.654,191.727 154.129,191.393 154.406 C 191.059 154.683,190.498 155.515,190.147 156.255 C 189.796 156.995,189.349 157.600,189.154 157.600 C 188.959 157.600,188.800 157.790,188.800 158.022 C 188.800 158.254,188.080 159.504,187.200 160.800 C 186.320 162.096,185.600 163.346,185.600 163.578 C 185.600 163.810,185.464 164.000,185.298 164.000 C 185.131 164.000,184.756 164.540,184.464 165.200 C 184.172 165.860,183.667 166.400,183.343 166.400 C 183.018 166.400,182.865 166.581,183.002 166.803 C 183.139 167.024,182.879 167.727,182.425 168.364 C 181.971 169.002,181.600 169.706,181.600 169.928 C 181.600 170.151,181.465 170.393,181.300 170.467 C 180.924 170.634,179.625 172.764,179.329 173.700 C 179.207 174.085,178.863 174.400,178.566 174.400 C 178.234 174.400,178.120 174.648,178.271 175.040 C 178.406 175.393,178.355 175.798,178.158 175.940 C 177.961 176.083,177.321 177.100,176.735 178.200 C 176.149 179.300,175.492 180.161,175.276 180.114 C 175.059 180.066,174.975 180.381,175.088 180.814 C 175.226 181.341,175.093 181.600,174.684 181.600 C 174.272 181.600,174.143 181.859,174.284 182.400 C 174.428 182.952,174.296 183.200,173.859 183.200 C 173.480 183.200,173.312 183.425,173.440 183.760 C 173.558 184.067,173.462 184.438,173.227 184.583 C 172.992 184.728,172.800 185.197,172.800 185.624 C 172.800 186.051,172.547 186.400,172.237 186.400 C 171.872 186.400,171.748 186.680,171.884 187.200 C 172.032 187.766,171.896 188.000,171.420 188.000 C 170.928 188.000,170.815 188.216,171.000 188.800 C 171.171 189.339,171.072 189.600,170.695 189.600 C 170.373 189.600,170.150 189.981,170.168 190.500 C 170.186 190.995,169.993 191.361,169.741 191.314 C 169.477 191.264,169.364 191.542,169.476 191.969 C 169.582 192.376,169.474 192.831,169.235 192.978 C 168.996 193.126,168.800 193.687,168.800 194.224 C 168.800 194.844,168.571 195.200,168.173 195.200 C 167.737 195.200,167.620 195.434,167.789 195.966 C 167.923 196.388,167.845 196.848,167.616 196.990 C 167.387 197.131,167.200 197.602,167.200 198.036 C 167.200 198.470,166.931 198.928,166.603 199.054 C 166.199 199.209,166.083 199.593,166.245 200.238 C 166.412 200.902,166.290 201.267,165.845 201.438 C 165.400 201.609,165.279 201.974,165.445 202.638 C 165.610 203.296,165.491 203.667,165.060 203.832 C 164.609 204.005,164.499 204.396,164.666 205.230 C 164.836 206.082,164.724 206.454,164.239 206.640 C 163.732 206.835,163.639 207.202,163.834 208.242 C 164.025 209.258,163.934 209.650,163.467 209.830 C 162.980 210.017,162.894 210.476,163.070 211.959 C 163.239 213.388,163.136 214.007,162.647 214.496 C 161.702 215.441,161.700 224.157,162.644 225.101 C 163.116 225.573,163.234 226.219,163.088 227.517 C 162.850 229.626,163.618 230.667,165.269 230.476 C 166.636 230.318,167.299 227.642,166.234 226.577 C 165.413 225.756,165.300 216.775,166.100 215.927 C 167.097 214.870,167.789 213.853,167.320 214.134 C 166.514 214.618,166.135 211.583,166.929 211.002 C 167.404 210.655,167.510 210.153,167.334 209.073 C 167.154 207.959,167.248 207.557,167.732 207.371 C 168.184 207.197,168.302 206.808,168.142 206.012 C 168.018 205.390,168.114 204.777,168.360 204.625 C 168.602 204.475,168.800 203.924,168.800 203.400 C 168.800 202.876,168.980 202.336,169.200 202.200 C 169.420 202.064,169.600 201.601,169.600 201.171 C 169.600 200.741,169.767 200.077,169.971 199.695 C 170.175 199.313,170.481 198.640,170.651 198.200 C 170.913 197.523,170.983 197.597,171.104 198.682 C 171.183 199.386,171.057 200.320,170.824 200.755 C 170.591 201.191,170.400 202.167,170.400 202.925 C 170.400 203.682,170.136 204.521,169.813 204.789 C 169.383 205.146,169.290 205.747,169.466 207.030 C 169.660 208.442,169.577 208.834,169.041 209.040 C 168.468 209.259,168.413 209.707,168.642 212.235 C 168.854 214.577,168.779 215.373,168.273 216.144 C 167.413 217.457,167.339 228.196,168.184 229.041 C 168.483 229.340,168.801 229.802,168.889 230.067 C 169.139 230.816,182.716 230.797,183.003 230.047 C 183.160 229.638,183.675 229.556,184.970 229.734 C 186.351 229.923,186.776 229.840,186.966 229.343 C 187.150 228.865,187.535 228.774,188.558 228.966 C 189.598 229.161,189.965 229.068,190.160 228.561 C 190.346 228.076,190.718 227.964,191.570 228.134 C 192.405 228.301,192.795 228.191,192.968 227.738 C 193.139 227.295,193.571 227.164,194.442 227.291 C 195.240 227.409,195.746 227.284,195.880 226.936 C 195.993 226.641,196.506 226.400,197.019 226.400 C 197.533 226.400,198.074 226.204,198.222 225.965 C 198.369 225.726,198.818 225.616,199.219 225.721 C 199.621 225.826,200.044 225.662,200.162 225.356 C 200.279 225.050,200.730 224.800,201.164 224.800 C 201.598 224.800,202.069 224.613,202.210 224.384 C 202.352 224.155,202.812 224.077,203.234 224.211 C 203.766 224.380,204.000 224.263,204.000 223.827 C 204.000 223.482,204.272 223.200,204.605 223.200 C 204.938 223.200,205.523 223.043,205.905 222.850 C 208.880 221.352,210.153 220.800,210.638 220.800 C 210.947 220.800,211.200 220.599,211.200 220.353 C 211.200 220.106,211.551 219.999,211.986 220.112 C 212.419 220.225,212.734 220.147,212.686 219.938 C 212.639 219.729,213.556 219.046,214.724 218.420 C 215.892 217.794,217.166 216.993,217.555 216.641 C 217.944 216.288,218.391 216.000,218.548 216.000 C 218.705 216.000,219.220 215.640,219.692 215.200 C 220.164 214.760,220.787 214.400,221.075 214.400 C 221.364 214.400,221.600 214.259,221.600 214.086 C 221.600 213.914,222.185 213.436,222.900 213.024 C 223.615 212.612,224.510 211.956,224.888 211.567 C 225.267 211.177,226.257 210.363,227.088 209.757 C 227.920 209.152,230.469 206.843,232.754 204.628 C 235.039 202.413,236.783 200.960,236.631 201.400 C 236.413 202.027,236.458 202.096,236.839 201.717 C 237.412 201.149,236.683 200.000,235.751 200.000 C 235.433 200.000,235.200 199.586,235.200 199.024 C 235.200 198.487,235.013 197.931,234.784 197.790 C 234.555 197.648,234.477 197.188,234.611 196.766 C 234.780 196.234,234.663 196.000,234.227 196.000 C 233.873 196.000,233.600 195.662,233.600 195.224 C 233.600 194.797,233.405 194.327,233.168 194.180 C 232.930 194.033,232.843 193.482,232.975 192.956 C 233.153 192.249,233.050 192.000,232.581 192.000 C 232.128 192.000,232.019 191.771,232.200 191.200 C 232.385 190.616,232.272 190.400,231.780 190.400 C 231.304 190.400,231.168 190.166,231.316 189.600 C 231.431 189.160,231.375 188.800,231.192 188.800 C 231.009 188.800,230.357 187.765,229.744 186.500 C 229.131 185.235,228.488 184.140,228.315 184.067 C 228.142 183.993,228.000 183.588,228.000 183.167 C 228.000 182.745,227.799 182.400,227.553 182.400 C 227.304 182.400,227.199 182.047,227.316 181.600 C 227.457 181.059,227.328 180.800,226.916 180.800 C 226.504 180.800,226.374 180.541,226.516 180.000 C 226.636 179.541,226.528 179.199,226.263 179.197 C 226.008 179.195,225.602 178.790,225.360 178.297 C 224.361 176.262,222.984 173.787,222.746 173.600 C 222.147 173.127,220.805 170.316,221.016 169.974 C 221.143 169.768,221.011 169.600,220.723 169.600 C 220.435 169.600,219.751 168.745,219.203 167.700 C 218.656 166.655,217.891 165.451,217.504 165.025 C 217.117 164.598,216.800 164.091,216.800 163.897 C 216.800 163.703,216.260 162.759,215.600 161.800 C 214.940 160.841,214.400 159.863,214.400 159.628 C 214.400 159.393,214.241 159.200,214.046 159.200 C 213.851 159.200,213.404 158.595,213.053 157.855 C 212.702 157.115,212.141 156.283,211.807 156.006 C 211.473 155.729,211.200 155.254,211.200 154.951 C 211.200 154.648,211.041 154.400,210.846 154.400 C 210.651 154.400,210.204 153.795,209.853 153.055 C 209.502 152.315,208.941 151.483,208.607 151.206 C 208.273 150.929,208.000 150.548,208.000 150.359 C 208.000 150.171,207.281 149.068,206.402 147.908 C 205.523 146.749,204.803 145.654,204.802 145.477 C 204.800 145.177,202.813 142.483,201.729 141.310 C 201.070 140.598,200.421 140.675,200.117 141.500 M239.400 221.535 C 238.960 221.621,237.520 222.537,236.200 223.570 C 233.550 225.643,227.774 229.600,227.396 229.600 C 227.264 229.600,226.131 230.285,224.878 231.123 C 221.226 233.563,213.104 237.435,205.000 240.599 C 202.360 241.629,199.840 242.618,199.400 242.796 C 198.150 243.301,193.229 244.683,190.800 245.212 C 189.590 245.475,188.187 245.850,187.681 246.045 C 187.176 246.240,186.151 246.400,185.405 246.400 C 184.658 246.400,183.936 246.580,183.800 246.800 C 183.487 247.306,186.258 247.328,188.523 246.836 C 189.445 246.636,191.460 246.258,193.000 245.997 C 194.540 245.736,196.430 245.370,197.200 245.184 C 197.970 244.999,199.500 244.645,200.600 244.398 C 205.307 243.342,214.312 240.456,217.400 239.014 C 227.227 234.426,232.894 231.023,237.702 226.826 C 239.954 224.860,241.130 221.194,239.400 221.535 " stroke="none" fill="#148cbc" fill-rule="evenodd"></path><path id="path2" d="M236.000 164.285 C 236.330 164.407,236.829 164.689,237.109 164.910 C 237.490 165.212,237.555 165.148,237.366 164.657 C 237.228 164.295,236.729 164.014,236.257 164.032 C 235.672 164.053,235.590 164.134,236.000 164.285 M238.400 165.388 C 238.400 165.492,239.101 165.898,239.959 166.291 C 242.780 167.585,248.400 173.615,248.400 175.348 C 248.400 175.681,248.597 176.074,248.838 176.223 C 249.078 176.372,249.209 177.189,249.128 178.039 C 249.033 179.037,249.161 179.653,249.490 179.779 C 250.192 180.049,250.192 184.751,249.490 185.021 C 249.161 185.147,249.033 185.763,249.128 186.761 C 249.209 187.611,249.078 188.428,248.838 188.577 C 248.597 188.726,248.400 189.258,248.400 189.759 C 248.400 190.910,244.759 198.112,243.184 200.077 C 242.533 200.889,242.000 201.730,242.000 201.947 C 242.000 202.592,230.216 214.268,228.854 214.972 C 228.164 215.329,227.600 215.763,227.600 215.937 C 227.600 216.110,226.916 216.637,226.079 217.108 C 225.242 217.578,224.225 218.331,223.817 218.781 C 223.409 219.232,222.905 219.600,222.696 219.600 C 222.487 219.600,221.516 220.140,220.538 220.800 C 219.560 221.460,218.604 222.000,218.413 222.000 C 218.223 222.000,218.007 222.135,217.933 222.300 C 217.645 222.949,207.949 227.817,203.200 229.697 C 202.650 229.915,201.887 230.252,201.505 230.447 C 201.123 230.641,200.459 230.800,200.029 230.800 C 199.599 230.800,199.136 230.980,199.000 231.200 C 198.864 231.420,198.324 231.600,197.800 231.600 C 197.276 231.600,196.725 231.797,196.576 232.038 C 196.427 232.280,195.793 232.402,195.168 232.310 C 194.464 232.207,193.953 232.345,193.828 232.672 C 193.716 232.962,193.090 233.200,192.436 233.200 C 191.782 233.200,191.126 233.397,190.977 233.638 C 190.828 233.878,190.011 234.009,189.161 233.928 C 188.123 233.829,187.548 233.958,187.409 234.320 C 187.269 234.686,186.631 234.825,185.436 234.752 C 184.396 234.688,183.405 234.864,183.024 235.180 C 182.530 235.590,181.483 235.654,178.570 235.449 C 175.438 235.229,174.653 235.289,174.152 235.791 C 173.351 236.592,171.246 236.585,170.937 235.780 C 170.734 235.252,170.138 235.200,166.958 235.434 C 163.922 235.657,163.176 235.602,163.000 235.144 C 162.851 234.755,162.305 234.626,161.239 234.728 C 160.389 234.809,159.572 234.678,159.423 234.438 C 159.274 234.197,158.713 234.000,158.176 234.000 C 157.639 234.000,157.200 233.820,157.200 233.600 C 157.200 233.380,156.927 233.200,156.593 233.200 C 156.259 233.200,154.800 232.480,153.352 231.600 C 151.903 230.720,150.650 230.000,150.567 230.000 C 150.264 230.000,147.055 226.342,146.605 225.484 C 146.350 224.998,145.951 224.240,145.718 223.800 C 144.487 221.479,144.300 220.738,144.527 219.083 C 144.674 218.007,144.594 217.154,144.321 216.881 C 143.992 216.552,143.996 216.287,144.337 215.876 C 144.730 215.403,144.611 210.955,144.192 210.475 C 144.132 210.406,143.820 210.856,143.499 211.475 C 141.932 214.490,141.052 216.289,140.697 217.200 C 140.482 217.750,140.148 218.513,139.953 218.895 C 139.759 219.277,139.600 220.047,139.600 220.607 C 139.600 221.167,139.375 221.711,139.100 221.816 C 138.500 222.045,138.614 231.163,139.224 231.780 C 139.431 231.989,139.600 232.467,139.600 232.842 C 139.600 234.845,143.521 239.956,146.526 241.871 C 149.346 243.667,150.819 244.400,151.612 244.400 C 152.045 244.400,152.400 244.580,152.400 244.800 C 152.400 245.020,152.839 245.200,153.376 245.200 C 153.913 245.200,154.464 245.380,154.600 245.600 C 154.736 245.820,155.472 246.000,156.236 246.000 C 157.000 246.000,157.711 246.225,157.816 246.500 C 157.947 246.843,158.737 246.959,160.328 246.868 C 161.974 246.775,162.786 246.902,163.120 247.304 C 163.495 247.756,164.662 247.841,168.845 247.724 L 174.098 247.577 176.225 249.588 C 177.395 250.695,178.509 251.600,178.701 251.600 C 178.892 251.600,179.406 251.915,179.842 252.300 C 180.847 253.188,182.791 254.383,183.700 254.671 C 184.085 254.793,184.400 255.052,184.400 255.247 C 184.400 255.441,184.672 255.600,185.005 255.600 C 185.338 255.600,185.968 255.780,186.405 256.000 C 186.842 256.220,187.558 256.580,187.995 256.800 C 188.432 257.020,189.141 257.200,189.571 257.200 C 190.001 257.200,190.464 257.380,190.600 257.600 C 190.736 257.820,191.472 258.000,192.236 258.000 C 193.000 258.000,193.711 258.225,193.817 258.500 C 194.055 259.122,207.934 259.026,208.561 258.399 C 208.781 258.179,209.554 258.000,210.280 258.000 C 211.006 258.000,211.600 257.820,211.600 257.600 C 211.600 257.380,212.140 257.200,212.800 257.200 C 213.460 257.200,214.000 257.020,214.000 256.800 C 214.000 256.580,214.224 256.400,214.497 256.400 C 215.440 256.400,222.274 252.785,223.206 251.794 C 223.719 251.247,224.329 250.800,224.560 250.800 C 225.123 250.800,230.800 245.140,230.800 244.580 C 230.800 244.338,231.249 243.718,231.798 243.202 C 232.347 242.686,233.212 241.440,233.720 240.432 C 234.228 239.424,234.831 238.240,235.060 237.800 C 235.288 237.360,235.683 236.597,235.938 236.105 C 236.192 235.613,236.400 234.938,236.400 234.605 C 236.400 234.272,236.580 234.000,236.800 234.000 C 237.020 234.000,237.200 233.460,237.200 232.800 C 237.200 232.140,237.380 231.600,237.600 231.600 C 237.820 231.600,238.000 231.006,238.000 230.280 C 238.000 229.554,238.157 228.789,238.348 228.580 C 238.767 228.124,239.305 226.000,239.002 226.000 C 238.885 226.000,237.794 226.810,236.578 227.801 C 227.794 234.955,213.637 241.569,201.100 244.375 C 200.055 244.609,198.435 244.971,197.500 245.180 C 188.992 247.084,182.783 247.798,183.400 246.800 C 183.536 246.580,184.150 246.400,184.764 246.400 C 185.378 246.400,186.402 246.242,187.040 246.050 C 187.678 245.857,189.190 245.490,190.400 245.235 C 193.843 244.507,199.697 242.686,203.500 241.161 C 203.995 240.962,204.805 240.638,205.300 240.440 C 205.795 240.242,207.053 239.702,208.096 239.240 C 209.138 238.778,210.087 238.400,210.204 238.400 C 210.321 238.400,211.898 237.706,213.709 236.857 C 215.519 236.009,217.900 234.896,219.000 234.385 C 220.100 233.874,221.752 232.948,222.672 232.328 C 223.592 231.707,224.452 231.200,224.584 231.200 C 225.436 231.200,239.600 221.197,239.600 220.595 C 239.600 220.373,242.480 217.315,246.000 213.800 C 249.520 210.285,252.400 207.216,252.400 206.980 C 252.400 206.743,252.940 206.032,253.600 205.400 C 254.260 204.768,254.800 204.048,254.800 203.801 C 254.800 203.553,255.117 203.002,255.504 202.575 C 256.341 201.654,259.608 195.217,259.603 194.500 C 259.601 194.225,259.780 194.000,260.000 194.000 C 260.220 194.000,260.400 193.544,260.400 192.987 C 260.400 192.431,260.629 191.887,260.910 191.779 C 261.237 191.654,261.368 191.041,261.275 190.070 C 261.177 189.036,261.332 188.388,261.765 188.029 C 262.649 187.296,262.677 182.192,261.800 181.855 C 261.455 181.723,261.200 181.126,261.200 180.450 C 261.200 179.319,259.717 175.941,259.100 175.667 C 258.935 175.593,258.800 175.317,258.800 175.052 C 258.800 174.450,255.133 170.800,254.529 170.800 C 254.285 170.800,253.990 170.550,253.872 170.244 C 253.688 169.764,250.746 168.189,248.200 167.208 C 247.760 167.038,246.897 166.697,246.281 166.450 C 245.666 166.202,244.641 166.000,244.005 166.000 C 243.368 166.000,242.736 165.820,242.600 165.600 C 242.360 165.211,238.400 165.012,238.400 165.388 " stroke="none" fill="#04abeb" fill-rule="evenodd"></path><path id="path3" d="M200.389 140.324 C 200.052 140.696,199.530 141.489,199.228 142.086 C 198.926 142.684,198.527 143.078,198.340 142.963 C 198.153 142.847,198.000 143.123,198.000 143.576 C 198.000 144.029,197.820 144.400,197.600 144.400 C 197.380 144.400,197.206 144.625,197.213 144.900 C 197.221 145.175,197.590 144.950,198.035 144.400 C 198.479 143.850,199.103 143.083,199.421 142.695 C 199.740 142.308,200.000 141.807,200.000 141.583 C 200.000 140.899,201.147 140.688,201.690 141.271 C 202.791 142.455,204.800 145.170,204.802 145.477 C 204.803 145.654,205.523 146.749,206.402 147.908 C 207.281 149.068,208.000 150.171,208.000 150.359 C 208.000 150.548,208.273 150.929,208.607 151.206 C 208.941 151.483,209.502 152.315,209.853 153.055 C 210.204 153.795,210.651 154.400,210.846 154.400 C 211.041 154.400,211.200 154.648,211.200 154.951 C 211.200 155.254,211.473 155.729,211.807 156.006 C 212.141 156.283,212.702 157.115,213.053 157.855 C 213.404 158.595,213.851 159.200,214.046 159.200 C 214.241 159.200,214.400 159.393,214.400 159.628 C 214.400 159.863,214.940 160.841,215.600 161.800 C 216.260 162.759,216.800 163.703,216.800 163.897 C 216.800 164.091,217.117 164.598,217.504 165.025 C 217.891 165.451,218.656 166.655,219.203 167.700 C 219.751 168.745,220.469 169.586,220.799 169.568 C 221.210 169.547,221.242 169.473,220.900 169.335 C 220.625 169.224,220.400 168.878,220.400 168.567 C 220.400 168.255,220.220 168.000,220.000 168.000 C 219.780 168.000,219.600 167.730,219.600 167.400 C 219.600 167.070,219.454 166.800,219.275 166.800 C 219.096 166.800,218.702 166.170,218.400 165.400 C 218.098 164.630,217.704 164.000,217.525 164.000 C 217.346 164.000,217.200 163.730,217.200 163.400 C 217.200 163.070,217.020 162.800,216.800 162.800 C 216.580 162.800,216.400 162.530,216.400 162.200 C 216.400 161.870,216.220 161.600,216.000 161.600 C 215.780 161.600,215.600 161.330,215.600 161.000 C 215.600 160.670,215.420 160.400,215.200 160.400 C 214.980 160.400,214.800 160.080,214.800 159.688 C 214.800 159.297,214.440 158.717,214.000 158.400 C 213.560 158.083,213.200 157.543,213.200 157.200 C 213.200 156.857,212.840 156.317,212.400 156.000 C 211.960 155.683,211.600 155.169,211.600 154.859 C 211.600 154.548,211.271 154.003,210.870 153.647 C 210.468 153.291,209.890 152.428,209.585 151.729 C 209.280 151.030,208.888 150.545,208.715 150.652 C 208.542 150.760,208.400 150.601,208.400 150.299 C 208.400 149.998,208.040 149.364,207.600 148.892 C 207.160 148.420,206.800 147.846,206.800 147.617 C 206.800 147.388,206.620 147.200,206.400 147.200 C 206.180 147.200,206.000 146.930,206.000 146.600 C 206.000 146.270,205.820 146.000,205.600 146.000 C 205.380 146.000,205.200 145.758,205.200 145.462 C 205.200 145.166,204.840 144.598,204.400 144.200 C 203.960 143.802,203.600 143.234,203.600 142.938 C 203.600 142.642,203.420 142.400,203.200 142.400 C 202.980 142.400,202.800 142.130,202.800 141.800 C 202.800 141.470,202.620 141.200,202.400 141.200 C 202.180 141.200,202.000 140.840,202.000 140.400 C 202.000 139.434,201.226 139.398,200.389 140.324 M196.400 145.976 C 196.400 146.429,196.220 146.800,196.000 146.800 C 195.780 146.800,195.600 147.070,195.600 147.400 C 195.600 147.730,195.420 148.000,195.200 148.000 C 194.980 148.000,194.800 148.270,194.800 148.600 C 194.800 148.930,194.650 149.200,194.468 149.200 C 194.285 149.200,193.881 149.695,193.570 150.300 C 193.260 150.905,192.689 151.691,192.303 152.047 C 191.916 152.403,191.600 152.911,191.600 153.175 C 191.600 153.440,191.375 153.894,191.100 154.184 C 189.960 155.385,189.200 156.433,189.200 156.805 C 189.200 157.022,189.020 157.200,188.800 157.200 C 188.580 157.200,188.400 157.560,188.400 158.000 C 188.400 158.440,188.220 158.800,188.000 158.800 C 187.780 158.800,187.600 159.070,187.600 159.400 C 187.600 159.730,187.420 160.000,187.200 160.000 C 186.980 160.000,186.800 160.270,186.800 160.600 C 186.800 160.930,186.620 161.200,186.400 161.200 C 186.180 161.200,186.000 161.470,186.000 161.800 C 186.000 162.130,185.820 162.400,185.600 162.400 C 185.380 162.400,185.200 162.636,185.200 162.925 C 185.200 163.213,184.840 163.836,184.400 164.308 C 183.960 164.780,183.600 165.339,183.600 165.550 C 183.600 165.761,183.375 166.024,183.100 166.135 C 182.788 166.261,182.851 166.349,183.266 166.368 C 183.640 166.386,184.166 165.873,184.464 165.200 C 184.756 164.540,185.131 164.000,185.298 164.000 C 185.464 164.000,185.600 163.810,185.600 163.578 C 185.600 163.346,186.320 162.096,187.200 160.800 C 188.080 159.504,188.800 158.254,188.800 158.022 C 188.800 157.790,188.959 157.600,189.154 157.600 C 189.349 157.600,189.796 156.995,190.147 156.255 C 190.498 155.515,191.059 154.683,191.393 154.406 C 191.727 154.129,192.000 153.654,192.000 153.351 C 192.000 153.048,192.150 152.800,192.332 152.800 C 192.515 152.800,192.920 152.305,193.232 151.700 C 193.544 151.095,193.901 150.510,194.026 150.400 C 194.252 150.201,196.416 147.027,196.938 146.128 C 197.089 145.868,197.030 145.542,196.807 145.404 C 196.581 145.265,196.400 145.520,196.400 145.976 M182.500 167.423 C 182.225 167.722,182.000 168.154,182.000 168.383 C 182.000 168.612,181.854 168.800,181.675 168.800 C 181.496 168.800,181.102 169.430,180.800 170.200 C 180.498 170.970,180.104 171.600,179.925 171.600 C 179.746 171.600,179.600 171.870,179.600 172.200 C 179.600 172.530,179.420 172.800,179.200 172.800 C 178.980 172.800,178.800 173.202,178.800 173.694 C 178.800 174.616,180.072 172.840,180.658 171.100 C 180.787 170.715,181.052 170.400,181.247 170.400 C 181.441 170.400,181.600 170.203,181.600 169.962 C 181.600 169.721,181.980 168.990,182.444 168.339 C 183.325 167.100,183.363 166.486,182.500 167.423 M220.800 170.159 C 220.800 170.462,222.437 173.356,222.746 173.600 C 222.984 173.787,224.361 176.262,225.360 178.297 C 225.602 178.790,226.070 179.181,226.400 179.165 C 226.809 179.146,226.841 179.073,226.500 178.935 C 226.225 178.824,226.000 178.478,226.000 178.167 C 226.000 177.855,225.820 177.600,225.600 177.600 C 225.380 177.600,225.200 177.229,225.200 176.776 C 225.200 176.323,225.020 176.064,224.800 176.200 C 224.580 176.336,224.400 176.077,224.400 175.624 C 224.400 175.171,224.220 174.800,224.000 174.800 C 223.780 174.800,223.600 174.440,223.600 174.000 C 223.600 173.560,223.420 173.200,223.200 173.200 C 222.980 173.200,222.800 172.930,222.800 172.600 C 222.800 172.270,222.620 172.000,222.400 172.000 C 222.180 172.000,222.000 171.807,222.000 171.571 C 222.000 171.336,221.730 170.873,221.400 170.543 C 221.070 170.213,220.800 170.040,220.800 170.159 M177.700 175.423 C 177.425 175.722,177.200 176.244,177.200 176.583 C 177.200 176.922,177.020 177.200,176.800 177.200 C 176.580 177.200,176.400 177.470,176.400 177.800 C 176.400 178.130,176.220 178.400,176.000 178.400 C 175.780 178.400,175.600 178.771,175.600 179.224 C 175.600 179.744,175.430 179.942,175.138 179.762 C 174.864 179.593,174.785 179.651,174.942 179.906 C 175.088 180.142,174.923 180.620,174.575 180.968 C 174.104 181.439,174.078 181.599,174.471 181.597 C 174.762 181.595,175.198 181.190,175.440 180.697 C 176.586 178.363,177.833 176.176,178.149 175.946 C 178.341 175.807,178.431 175.509,178.349 175.286 C 178.260 175.043,177.998 175.098,177.700 175.423 M227.200 181.771 C 227.200 182.117,227.380 182.400,227.600 182.400 C 227.820 182.400,228.000 182.745,228.000 183.167 C 228.000 183.588,228.142 183.993,228.315 184.067 C 228.488 184.140,229.131 185.235,229.744 186.500 C 230.357 187.765,231.071 188.786,231.329 188.768 C 231.659 188.746,231.650 188.676,231.300 188.535 C 231.025 188.424,230.800 187.988,230.800 187.567 C 230.800 187.145,230.620 186.800,230.400 186.800 C 230.180 186.800,230.000 186.440,230.000 186.000 C 230.000 185.560,229.820 185.200,229.600 185.200 C 229.380 185.200,229.200 184.840,229.200 184.400 C 229.200 183.960,229.020 183.600,228.800 183.600 C 228.580 183.600,228.400 183.317,228.400 182.971 C 228.400 182.626,228.130 182.073,227.800 181.743 C 227.267 181.210,227.200 181.213,227.200 181.771 M172.900 184.223 C 172.625 184.522,172.400 185.029,172.400 185.350 C 172.400 185.671,172.175 186.024,171.900 186.135 C 171.601 186.256,171.682 186.350,172.100 186.368 C 172.519 186.387,172.800 186.111,172.800 185.680 C 172.800 185.284,173.013 184.747,173.273 184.487 C 173.534 184.226,173.669 183.938,173.573 183.847 C 173.478 183.756,173.175 183.925,172.900 184.223 M169.584 191.300 C 169.284 192.125,168.895 192.800,168.720 192.800 C 168.544 192.800,168.400 193.235,168.400 193.767 C 168.400 194.298,168.175 194.824,167.900 194.935 C 167.601 195.056,167.682 195.150,168.100 195.168 C 168.540 195.188,168.800 194.908,168.800 194.412 C 168.800 193.979,169.168 192.969,169.618 192.167 C 170.068 191.366,170.367 190.505,170.283 190.255 C 170.198 190.005,169.884 190.475,169.584 191.300 M232.800 193.348 C 232.800 193.681,232.980 194.064,233.200 194.200 C 233.420 194.336,233.600 194.797,233.600 195.224 C 233.600 195.708,233.863 195.988,234.300 195.968 C 234.718 195.950,234.799 195.856,234.500 195.735 C 234.225 195.624,234.000 195.175,234.000 194.738 C 234.000 194.301,233.730 193.673,233.400 193.343 C 232.867 192.810,232.800 192.810,232.800 193.348 M167.300 196.623 C 167.025 196.922,166.800 197.519,166.800 197.950 C 166.800 198.381,166.575 198.824,166.300 198.935 C 165.908 199.093,165.911 199.144,166.313 199.168 C 166.594 199.186,166.923 198.885,167.042 198.500 C 167.161 198.115,167.438 197.467,167.657 197.061 C 168.154 196.139,167.963 195.904,167.300 196.623 M234.400 197.148 C 234.400 197.371,234.580 197.664,234.800 197.800 C 235.020 197.936,235.200 198.487,235.200 199.024 C 235.200 199.699,235.416 199.990,235.900 199.968 C 236.318 199.950,236.399 199.856,236.100 199.735 C 235.825 199.624,235.600 199.175,235.600 198.738 C 235.600 198.301,235.330 197.673,235.000 197.343 C 234.670 197.013,234.400 196.925,234.400 197.148 M170.674 197.904 C 170.495 198.181,170.464 198.770,170.604 199.214 C 170.778 199.761,170.693 199.985,170.340 199.910 C 170.048 199.848,169.756 200.239,169.676 200.800 C 169.597 201.350,169.368 201.971,169.166 202.180 C 168.965 202.389,168.800 202.963,168.800 203.456 C 168.800 203.949,168.620 204.464,168.400 204.600 C 168.180 204.736,168.013 205.242,168.028 205.724 C 168.055 206.563,168.069 206.566,168.368 205.800 C 168.540 205.360,168.842 204.997,169.040 204.994 C 169.915 204.979,170.400 204.250,170.400 202.950 C 170.400 202.179,170.591 201.191,170.824 200.755 C 171.322 199.826,171.180 197.123,170.674 197.904 M232.979 204.451 C 231.230 206.225,228.861 208.382,227.712 209.242 C 226.564 210.103,225.304 211.137,224.912 211.541 C 224.521 211.945,223.615 212.612,222.900 213.024 C 222.185 213.436,221.600 213.914,221.600 214.086 C 221.600 214.259,221.364 214.400,221.075 214.400 C 220.787 214.400,220.164 214.760,219.692 215.200 C 219.220 215.640,218.668 216.000,218.466 216.000 C 218.263 216.000,217.885 216.257,217.624 216.571 C 217.204 217.077,214.702 218.527,212.103 219.771 C 211.610 220.007,211.205 220.335,211.203 220.500 C 211.201 220.665,210.947 220.800,210.638 220.800 C 210.153 220.800,208.880 221.352,205.905 222.850 C 205.523 223.043,204.938 223.200,204.605 223.200 C 204.272 223.200,204.014 223.515,204.032 223.900 C 204.050 224.318,204.144 224.399,204.265 224.100 C 204.376 223.825,204.912 223.600,205.457 223.600 C 206.015 223.600,206.339 223.426,206.200 223.200 C 206.060 222.973,206.396 222.800,206.976 222.800 C 207.539 222.800,208.000 222.620,208.000 222.400 C 208.000 222.180,208.360 222.000,208.800 222.000 C 209.240 222.000,209.600 221.820,209.600 221.600 C 209.600 221.380,209.915 221.196,210.300 221.191 C 210.685 221.186,211.450 220.830,212.000 220.400 C 212.550 219.970,213.315 219.614,213.700 219.609 C 214.085 219.604,214.400 219.420,214.400 219.200 C 214.400 218.980,214.670 218.800,215.000 218.800 C 215.330 218.800,215.600 218.664,215.600 218.498 C 215.600 218.331,216.185 217.936,216.900 217.620 C 217.615 217.303,218.549 216.720,218.975 216.322 C 219.402 215.925,219.895 215.600,220.071 215.600 C 220.377 215.600,221.489 214.769,222.616 213.700 C 222.906 213.425,223.302 213.200,223.497 213.200 C 223.691 213.200,224.368 212.660,225.000 212.000 C 225.632 211.340,226.370 210.800,226.639 210.800 C 227.114 210.800,236.510 201.576,236.275 201.341 C 236.210 201.277,234.727 202.676,232.979 204.451 M169.634 204.126 C 169.322 204.438,169.200 204.275,169.200 203.547 C 169.200 202.228,169.761 201.664,169.934 202.808 C 170.007 203.294,169.872 203.888,169.634 204.126 M164.860 203.066 C 164.562 203.389,164.430 203.764,164.566 203.900 C 164.901 204.234,165.727 203.370,165.545 202.874 C 165.465 202.656,165.157 202.742,164.860 203.066 M164.446 205.267 C 164.421 205.633,164.175 206.014,163.900 206.112 C 163.625 206.210,163.538 206.438,163.707 206.619 C 164.177 207.122,164.899 206.179,164.684 205.342 C 164.528 204.736,164.484 204.722,164.446 205.267 M169.260 207.267 C 169.227 207.853,168.975 208.414,168.700 208.512 C 168.425 208.610,168.338 208.838,168.507 209.019 C 169.045 209.595,169.669 208.538,169.491 207.349 L 169.320 206.200 169.260 207.267 M167.354 207.777 C 167.232 208.094,167.217 208.679,167.320 209.077 C 167.468 209.650,167.517 209.613,167.554 208.900 C 167.579 208.405,167.780 208.000,168.000 208.000 C 168.220 208.000,168.400 207.820,168.400 207.600 C 168.400 206.989,167.604 207.124,167.354 207.777 M163.646 208.467 C 163.621 208.833,163.375 209.214,163.100 209.312 C 162.825 209.410,162.738 209.638,162.907 209.819 C 163.377 210.322,164.099 209.379,163.884 208.542 C 163.728 207.936,163.684 207.922,163.646 208.467 M166.554 211.377 C 166.432 211.694,166.417 212.279,166.520 212.677 C 166.668 213.250,166.717 213.213,166.754 212.500 C 166.779 212.005,166.980 211.600,167.200 211.600 C 167.420 211.600,167.600 211.420,167.600 211.200 C 167.600 210.589,166.804 210.724,166.554 211.377 M162.800 212.005 C 162.800 212.448,162.582 213.160,162.315 213.587 C 162.048 214.014,161.968 214.502,162.137 214.670 C 162.607 215.141,163.187 213.950,163.194 212.500 C 163.197 211.785,163.110 211.200,163.000 211.200 C 162.890 211.200,162.800 211.562,162.800 212.005 M168.472 213.067 C 168.432 213.983,168.202 214.799,167.961 214.880 C 167.719 214.960,167.588 215.470,167.670 216.013 L 167.818 217.000 168.330 216.086 C 168.622 215.567,168.778 214.359,168.693 213.286 L 168.544 211.400 168.472 213.067 M165.843 216.233 C 165.147 218.047,165.644 226.800,166.443 226.800 C 166.639 226.800,166.800 226.339,166.800 225.776 C 166.800 225.196,166.627 224.860,166.400 225.000 C 166.143 225.159,166.000 223.796,166.000 221.200 C 166.000 218.604,166.143 217.241,166.400 217.400 C 166.627 217.540,166.800 217.204,166.800 216.624 C 166.800 215.487,166.220 215.250,165.843 216.233 M239.586 224.300 C 239.285 224.905,238.965 225.548,238.877 225.730 C 238.789 225.911,239.095 225.822,239.558 225.533 C 240.021 225.244,240.400 224.601,240.400 224.104 C 240.400 222.929,240.253 222.964,239.586 224.300 M202.000 224.395 C 201.670 224.586,201.085 224.840,200.700 224.959 C 199.944 225.192,199.729 226.000,200.424 226.000 C 200.657 226.000,200.736 225.820,200.600 225.600 C 200.464 225.380,200.736 225.200,201.205 225.200 C 201.674 225.200,202.327 224.930,202.657 224.600 C 203.309 223.948,202.959 223.839,202.000 224.395 M162.000 225.600 C 162.000 226.040,162.180 226.400,162.400 226.400 C 162.620 226.400,162.825 226.895,162.854 227.500 C 162.904 228.502,162.925 228.516,163.088 227.659 C 163.314 226.469,162.908 224.800,162.392 224.800 C 162.177 224.800,162.000 225.160,162.000 225.600 M198.200 226.000 C 198.064 226.220,197.533 226.400,197.019 226.400 C 196.506 226.400,195.982 226.670,195.855 227.000 C 195.729 227.330,195.799 227.600,196.013 227.600 C 196.226 227.600,196.400 227.420,196.400 227.200 C 196.400 226.980,196.850 226.800,197.400 226.800 C 197.950 226.800,198.400 226.633,198.400 226.429 C 198.400 226.225,198.715 225.976,199.100 225.876 C 199.731 225.711,199.733 225.688,199.124 225.646 C 198.752 225.621,198.336 225.780,198.200 226.000 M192.984 227.627 C 192.839 227.861,192.838 228.171,192.982 228.315 C 193.126 228.459,193.369 228.378,193.522 228.135 C 193.675 227.892,194.160 227.603,194.600 227.493 C 195.225 227.337,195.164 227.283,194.324 227.246 C 193.732 227.221,193.129 227.392,192.984 227.627 M190.184 228.427 C 189.835 228.991,190.362 229.502,190.722 228.948 C 190.875 228.713,191.270 228.417,191.600 228.292 C 192.008 228.136,191.920 228.053,191.324 228.032 C 190.842 228.014,190.329 228.192,190.184 228.427 M166.432 229.473 C 166.409 230.109,166.100 230.392,165.300 230.513 L 164.200 230.680 165.313 230.740 C 166.448 230.801,167.055 230.074,166.669 229.113 C 166.556 228.831,166.449 228.993,166.432 229.473 M167.600 229.557 C 167.600 230.030,167.974 230.407,168.600 230.564 C 169.150 230.702,169.600 230.961,169.600 231.139 C 169.600 231.317,171.040 231.498,172.800 231.541 C 174.665 231.587,176.000 231.457,176.000 231.230 C 176.000 231.015,176.945 230.764,178.100 230.671 C 179.255 230.578,178.130 230.555,175.600 230.620 C 170.162 230.761,168.908 230.570,168.586 229.556 C 168.275 228.577,167.600 228.578,167.600 229.557 M186.984 229.227 C 186.635 229.791,187.162 230.302,187.522 229.748 C 187.675 229.513,188.070 229.217,188.400 229.092 C 188.808 228.936,188.720 228.853,188.124 228.832 C 187.642 228.814,187.129 228.992,186.984 229.227 M162.800 230.167 C 162.800 230.515,163.085 230.800,163.433 230.800 C 163.782 230.800,163.995 230.586,163.908 230.325 C 163.661 229.583,162.800 229.460,162.800 230.167 M182.984 230.027 C 182.839 230.261,182.838 230.571,182.982 230.715 C 183.126 230.859,183.369 230.775,183.522 230.529 C 183.675 230.282,184.250 229.997,184.800 229.895 C 185.661 229.735,185.623 229.701,184.524 229.654 C 183.822 229.625,183.129 229.792,182.984 230.027 " stroke="none" fill="#41aed9" fill-rule="evenodd"></path><path id="path4" d="M234.300 163.876 C 232.933 164.233,233.603 165.025,235.105 164.829 C 235.383 164.792,235.718 165.041,235.848 165.381 C 235.979 165.722,236.429 166.000,236.848 166.000 C 238.939 166.000,246.000 171.278,246.000 172.840 C 246.000 173.211,246.267 173.617,246.593 173.742 C 246.920 173.867,247.089 174.223,246.970 174.533 C 246.851 174.843,247.031 175.203,247.370 175.333 C 247.746 175.478,247.888 175.825,247.735 176.225 C 247.597 176.586,247.709 177.020,247.985 177.191 C 248.677 177.618,248.685 187.577,247.994 188.004 C 247.710 188.179,247.625 188.647,247.785 189.152 C 247.972 189.741,247.859 190.079,247.420 190.247 C 247.071 190.381,246.833 190.697,246.891 190.948 C 247.036 191.580,243.634 198.400,243.173 198.400 C 242.968 198.400,242.800 198.646,242.800 198.946 C 242.800 200.463,233.565 210.271,228.139 214.517 C 227.072 215.351,225.634 216.476,224.942 217.017 C 224.250 217.558,223.513 218.000,223.304 218.000 C 223.095 218.000,222.598 218.360,222.200 218.800 C 221.802 219.240,221.144 219.600,220.738 219.600 C 220.332 219.600,220.000 219.762,220.000 219.960 C 220.000 220.295,217.248 222.112,216.800 222.074 C 216.690 222.065,216.296 222.332,215.925 222.668 C 215.554 223.004,215.059 223.160,214.825 223.016 C 214.591 222.871,214.400 222.939,214.400 223.166 C 214.400 223.641,212.003 224.980,211.994 224.510 C 211.991 224.340,211.856 224.389,211.694 224.620 C 211.220 225.298,207.319 227.185,207.016 226.883 C 206.864 226.731,206.562 226.924,206.345 227.312 C 206.128 227.700,205.781 227.912,205.572 227.783 C 205.364 227.654,204.906 227.837,204.555 228.188 C 204.203 228.540,203.596 228.726,203.205 228.602 C 202.768 228.463,202.401 228.621,202.250 229.013 C 202.116 229.364,201.813 229.532,201.578 229.386 C 201.342 229.241,200.812 229.427,200.400 229.800 C 199.988 230.173,199.458 230.359,199.222 230.214 C 198.987 230.068,198.520 230.223,198.185 230.558 C 197.851 230.892,197.290 231.056,196.939 230.921 C 196.556 230.774,196.147 230.951,195.917 231.363 C 195.636 231.864,195.233 231.983,194.417 231.804 C 193.593 231.623,193.235 231.732,193.047 232.222 C 192.862 232.703,192.515 232.815,191.780 232.631 C 191.111 232.463,190.551 232.591,190.134 233.009 C 189.703 233.440,189.136 233.562,188.360 233.391 C 187.631 233.231,186.908 233.359,186.357 233.745 C 185.731 234.184,184.941 234.284,183.484 234.112 C 182.125 233.951,181.559 234.010,181.735 234.295 C 182.168 234.995,181.332 235.056,172.643 234.958 C 166.568 234.889,164.204 234.730,163.984 234.374 C 163.792 234.064,163.231 233.974,162.456 234.129 C 161.622 234.296,161.035 234.178,160.617 233.760 C 160.258 233.401,159.681 233.247,159.231 233.390 C 158.731 233.549,158.326 233.396,158.079 232.956 C 157.844 232.535,157.446 232.374,157.034 232.531 C 156.624 232.689,156.279 232.550,156.133 232.170 C 156.003 231.831,155.643 231.651,155.333 231.770 C 155.023 231.889,154.667 231.720,154.542 231.393 C 154.417 231.067,154.038 230.800,153.700 230.800 C 151.863 230.800,146.000 223.997,146.000 221.866 C 146.000 221.316,145.801 220.800,145.557 220.719 C 144.863 220.488,144.845 211.557,145.538 211.291 C 145.892 211.156,146.001 210.704,145.855 209.977 C 145.719 209.293,145.841 208.698,146.176 208.420 C 146.717 207.971,146.580 206.400,146.000 206.400 C 145.831 206.400,145.584 206.715,145.449 207.100 C 145.315 207.485,144.658 208.520,143.990 209.400 C 143.322 210.280,142.605 211.405,142.397 211.900 C 142.190 212.395,141.816 212.800,141.567 212.800 C 141.318 212.800,141.221 213.077,141.350 213.415 C 141.485 213.767,141.329 214.129,140.986 214.261 C 140.656 214.387,140.413 214.696,140.446 214.946 C 140.575 215.914,139.860 218.079,139.346 218.276 C 139.010 218.405,138.891 218.823,139.032 219.384 C 139.157 219.883,139.022 220.534,138.729 220.842 C 138.150 221.452,137.933 232.800,138.500 232.800 C 138.665 232.800,138.800 233.228,138.800 233.751 C 138.800 234.274,139.063 234.920,139.385 235.187 C 139.706 235.454,140.088 236.061,140.233 236.536 C 140.556 237.594,146.312 243.200,147.076 243.200 C 147.378 243.200,147.733 243.480,147.864 243.823 C 147.996 244.166,148.357 244.349,148.667 244.230 C 148.977 244.111,149.337 244.291,149.467 244.630 C 149.597 244.969,149.945 245.153,150.240 245.040 C 150.535 244.927,151.057 245.114,151.399 245.456 C 151.741 245.798,152.293 245.973,152.625 245.846 C 152.972 245.713,153.333 245.881,153.471 246.241 C 153.653 246.715,154.041 246.806,155.061 246.615 C 156.096 246.421,156.469 246.513,156.660 247.011 C 156.862 247.538,157.265 247.611,158.796 247.401 C 160.276 247.197,160.829 247.286,161.356 247.813 C 161.941 248.398,162.593 248.449,166.378 248.201 C 172.486 247.802,173.363 248.018,176.204 250.620 C 177.513 251.819,178.784 252.800,179.030 252.800 C 179.275 252.800,179.802 253.160,180.200 253.600 C 180.598 254.040,181.172 254.400,181.475 254.400 C 181.777 254.400,182.133 254.680,182.264 255.023 C 182.396 255.366,182.757 255.549,183.067 255.430 C 183.377 255.311,183.732 255.479,183.857 255.804 C 183.982 256.129,184.272 256.279,184.503 256.137 C 184.733 255.994,185.162 256.207,185.457 256.610 C 185.751 257.012,186.107 257.226,186.248 257.085 C 186.390 256.944,186.887 257.036,187.353 257.290 C 187.819 257.543,188.532 257.778,188.937 257.811 C 189.342 257.845,189.814 258.100,189.987 258.379 C 190.171 258.676,190.634 258.780,191.108 258.629 C 191.586 258.477,192.151 258.608,192.492 258.949 C 192.869 259.326,193.806 259.504,195.200 259.463 C 196.598 259.422,197.390 259.572,197.499 259.900 C 197.765 260.694,203.484 260.573,204.301 259.756 C 204.811 259.246,205.416 259.166,207.224 259.371 C 209.123 259.586,209.545 259.519,209.755 258.972 C 209.932 258.511,210.291 258.386,210.958 258.554 C 211.562 258.705,212.092 258.572,212.411 258.187 C 212.700 257.838,213.228 257.682,213.658 257.818 C 214.077 257.951,214.669 257.788,215.013 257.444 C 215.348 257.109,215.865 256.927,216.160 257.040 C 216.455 257.153,216.803 256.969,216.933 256.630 C 217.063 256.291,217.423 256.111,217.733 256.230 C 218.043 256.349,218.403 256.169,218.533 255.830 C 218.670 255.474,219.029 255.313,219.385 255.450 C 219.723 255.579,220.000 255.482,220.000 255.234 C 220.000 254.986,220.485 254.562,221.078 254.292 C 224.488 252.738,232.583 244.344,234.832 240.028 C 235.299 239.133,235.862 238.400,236.083 238.400 C 236.305 238.400,236.379 238.123,236.250 237.785 C 236.115 237.435,236.269 237.072,236.607 236.942 C 236.933 236.817,237.200 236.294,237.200 235.781 C 237.200 235.267,237.387 234.731,237.616 234.590 C 237.845 234.448,237.927 234.001,237.799 233.596 C 237.653 233.136,237.818 232.718,238.239 232.482 C 238.702 232.223,238.850 231.776,238.713 231.055 C 238.594 230.436,238.735 229.820,239.056 229.554 C 239.689 229.028,239.783 227.360,239.200 227.000 C 238.980 226.864,238.800 227.113,238.800 227.553 C 238.800 227.993,238.620 228.464,238.400 228.600 C 238.180 228.736,238.000 229.467,238.000 230.224 C 238.000 230.981,237.820 231.600,237.600 231.600 C 237.380 231.600,237.200 232.140,237.200 232.800 C 237.200 233.460,237.020 234.000,236.800 234.000 C 236.580 234.000,236.400 234.272,236.400 234.605 C 236.400 235.184,236.195 235.679,235.122 237.700 C 234.859 238.195,234.228 239.424,233.720 240.432 C 233.212 241.440,232.347 242.686,231.798 243.202 C 231.249 243.718,230.800 244.338,230.800 244.580 C 230.800 245.140,225.123 250.800,224.560 250.800 C 224.329 250.800,223.719 251.247,223.206 251.794 C 222.274 252.785,215.440 256.400,214.497 256.400 C 214.224 256.400,214.000 256.580,214.000 256.800 C 214.000 257.020,213.460 257.200,212.800 257.200 C 212.140 257.200,211.600 257.380,211.600 257.600 C 211.600 257.820,211.006 258.000,210.280 258.000 C 209.554 258.000,208.781 258.179,208.561 258.399 C 207.934 259.026,194.055 259.122,193.817 258.500 C 193.711 258.225,193.000 258.000,192.236 258.000 C 191.472 258.000,190.736 257.820,190.600 257.600 C 190.464 257.380,190.001 257.200,189.571 257.200 C 189.141 257.200,188.387 256.992,187.895 256.738 C 186.018 255.767,185.593 255.600,185.005 255.600 C 184.672 255.600,184.400 255.441,184.400 255.247 C 184.400 255.052,184.085 254.793,183.700 254.671 C 182.791 254.383,180.847 253.188,179.842 252.300 C 179.406 251.915,178.892 251.600,178.701 251.600 C 178.509 251.600,177.395 250.695,176.225 249.588 L 174.098 247.577 168.845 247.724 C 164.662 247.841,163.495 247.756,163.120 247.304 C 162.786 246.902,161.974 246.775,160.328 246.868 C 158.737 246.959,157.947 246.843,157.816 246.500 C 157.711 246.225,157.000 246.000,156.236 246.000 C 155.472 246.000,154.736 245.820,154.600 245.600 C 154.464 245.380,153.913 245.200,153.376 245.200 C 152.839 245.200,152.400 245.020,152.400 244.800 C 152.400 244.580,152.045 244.400,151.612 244.400 C 150.819 244.400,149.346 243.667,146.526 241.871 C 143.521 239.956,139.600 234.845,139.600 232.842 C 139.600 232.467,139.431 231.989,139.224 231.780 C 138.614 231.163,138.500 222.045,139.100 221.816 C 139.375 221.711,139.600 221.167,139.600 220.607 C 139.600 220.047,139.759 219.277,139.953 218.895 C 140.148 218.513,140.482 217.750,140.697 217.200 C 141.052 216.289,141.932 214.490,143.499 211.475 C 143.820 210.856,144.132 210.406,144.192 210.475 C 144.611 210.955,144.730 215.403,144.337 215.876 C 143.996 216.287,143.992 216.552,144.321 216.881 C 144.594 217.154,144.674 218.007,144.527 219.083 C 144.300 220.738,144.487 221.479,145.718 223.800 C 145.951 224.240,146.350 224.998,146.605 225.484 C 147.055 226.342,150.264 230.000,150.567 230.000 C 150.650 230.000,151.903 230.720,153.352 231.600 C 154.800 232.480,156.259 233.200,156.593 233.200 C 156.927 233.200,157.200 233.380,157.200 233.600 C 157.200 233.820,157.639 234.000,158.176 234.000 C 158.713 234.000,159.274 234.197,159.423 234.438 C 159.572 234.678,160.389 234.809,161.239 234.728 C 162.305 234.626,162.851 234.755,163.000 235.144 C 163.176 235.602,163.922 235.657,166.958 235.434 C 170.138 235.200,170.734 235.252,170.937 235.780 C 171.246 236.585,173.351 236.592,174.152 235.791 C 174.653 235.289,175.438 235.229,178.570 235.449 C 181.483 235.654,182.530 235.590,183.024 235.180 C 183.405 234.864,184.396 234.688,185.436 234.752 C 186.631 234.825,187.269 234.686,187.409 234.320 C 187.548 233.958,188.123 233.829,189.161 233.928 C 190.011 234.009,190.828 233.878,190.977 233.638 C 191.126 233.397,191.782 233.200,192.436 233.200 C 193.090 233.200,193.716 232.962,193.828 232.672 C 193.953 232.345,194.464 232.207,195.168 232.310 C 195.793 232.402,196.427 232.280,196.576 232.038 C 196.725 231.797,197.276 231.600,197.800 231.600 C 198.324 231.600,198.864 231.420,199.000 231.200 C 199.136 230.980,199.599 230.800,200.029 230.800 C 200.459 230.800,201.123 230.641,201.505 230.447 C 201.887 230.252,202.650 229.915,203.200 229.697 C 207.949 227.817,217.645 222.949,217.933 222.300 C 218.007 222.135,218.223 222.000,218.413 222.000 C 218.604 222.000,219.560 221.460,220.538 220.800 C 221.516 220.140,222.487 219.600,222.696 219.600 C 222.905 219.600,223.409 219.232,223.817 218.781 C 224.225 218.331,225.242 217.578,226.079 217.108 C 226.916 216.637,227.600 216.110,227.600 215.937 C 227.600 215.763,228.164 215.329,228.854 214.972 C 230.216 214.268,242.000 202.592,242.000 201.947 C 242.000 201.730,242.533 200.889,243.184 200.077 C 244.759 198.112,248.400 190.910,248.400 189.759 C 248.400 189.258,248.597 188.726,248.838 188.577 C 249.078 188.428,249.209 187.611,249.128 186.761 C 249.033 185.763,249.161 185.147,249.490 185.021 C 249.826 184.892,250.000 183.996,250.000 182.400 C 250.000 180.804,249.826 179.908,249.490 179.779 C 249.161 179.653,249.033 179.037,249.128 178.039 C 249.209 177.189,249.078 176.372,248.838 176.223 C 248.597 176.074,248.400 175.681,248.400 175.348 C 248.400 173.605,242.830 167.641,239.859 166.203 L 238.200 165.400 240.156 165.276 C 241.231 165.207,242.302 165.342,242.536 165.576 C 242.769 165.809,243.456 166.000,244.061 166.000 C 244.667 166.000,245.666 166.202,246.281 166.450 C 246.897 166.697,247.760 167.038,248.200 167.208 C 250.746 168.189,253.688 169.764,253.872 170.244 C 253.990 170.550,254.298 170.800,254.558 170.800 C 255.158 170.800,258.800 174.475,258.800 175.080 C 258.800 175.330,258.935 175.593,259.100 175.667 C 259.717 175.941,261.200 179.319,261.200 180.450 C 261.200 181.126,261.455 181.723,261.800 181.855 C 262.677 182.192,262.649 187.296,261.765 188.029 C 261.332 188.388,261.177 189.036,261.275 190.070 C 261.368 191.041,261.237 191.654,260.910 191.779 C 260.629 191.887,260.400 192.431,260.400 192.987 C 260.400 193.544,260.220 194.000,260.000 194.000 C 259.780 194.000,259.601 194.225,259.603 194.500 C 259.608 195.217,256.341 201.654,255.504 202.575 C 255.117 203.002,254.800 203.553,254.800 203.801 C 254.800 204.048,254.260 204.768,253.600 205.400 C 252.940 206.032,252.400 206.743,252.400 206.980 C 252.400 207.216,249.520 210.285,246.000 213.800 C 239.859 219.932,237.744 222.451,241.272 219.431 C 242.192 218.644,243.137 217.983,243.372 217.962 C 243.607 217.941,245.369 216.186,247.287 214.062 C 252.864 207.886,254.000 206.537,254.000 206.091 C 254.000 205.860,254.495 205.250,255.100 204.736 C 255.705 204.221,256.205 203.620,256.212 203.400 C 256.231 202.727,258.053 200.000,258.482 200.000 C 258.704 200.000,258.787 199.743,258.667 199.429 C 258.546 199.115,258.705 198.645,259.019 198.384 C 259.334 198.123,259.492 197.748,259.370 197.552 C 259.249 197.355,259.441 197.082,259.798 196.946 C 260.154 196.809,260.359 196.471,260.253 196.194 C 260.147 195.918,260.327 195.311,260.653 194.845 C 260.979 194.380,261.144 193.833,261.019 193.632 C 260.895 193.430,261.082 192.975,261.437 192.620 C 261.849 192.208,261.994 191.632,261.841 191.020 C 261.561 189.906,261.923 188.705,262.442 189.026 C 263.126 189.449,262.870 181.212,262.177 180.520 C 261.834 180.177,261.652 179.641,261.772 179.327 C 261.893 179.014,261.722 178.348,261.394 177.847 C 261.066 177.346,260.917 176.817,261.063 176.671 C 261.209 176.525,260.939 176.068,260.464 175.656 C 259.989 175.243,259.600 174.728,259.600 174.510 C 259.600 174.026,255.621 170.000,255.143 170.000 C 254.954 170.000,254.478 169.685,254.084 169.300 C 253.192 168.428,250.117 166.800,249.362 166.800 C 249.053 166.800,248.800 166.620,248.800 166.400 C 248.800 166.180,248.350 166.000,247.800 166.000 C 247.250 166.000,246.800 165.800,246.800 165.555 C 246.800 165.266,246.322 165.201,245.427 165.369 C 244.390 165.563,243.966 165.468,243.693 164.981 C 243.416 164.486,242.888 164.375,241.430 164.505 C 240.080 164.626,239.467 164.519,239.321 164.138 C 239.119 163.612,235.945 163.446,234.300 163.876 M237.366 164.657 C 237.555 165.148,237.490 165.212,237.109 164.910 C 236.829 164.689,236.330 164.407,236.000 164.285 C 235.590 164.134,235.672 164.053,236.257 164.032 C 236.729 164.014,237.228 164.295,237.366 164.657 " stroke="none" fill="#16b5f0" fill-rule="evenodd"></path></g></svg>