<?xml version="1.0" standalone="no"?>
<!DOCTYPE svg PUBLIC "-//W3C//DTD SVG 20010904//EN"
 "http://www.w3.org/TR/2001/REC-SVG-20010904/DTD/svg10.dtd">
<svg version="1.0" xmlns="http://www.w3.org/2000/svg"
 width="763.000000pt" height="915.000000pt" viewBox="0 0 763.000000 915.000000"
 preserveAspectRatio="xMidYMid meet">
<metadata>
Created by potrace 1.16, written by Peter Selinger 2001-2019
</metadata>
<g transform="translate(0.000000,915.000000) scale(0.100000,-0.100000)"
fill="#d4f1f9" stroke="none">
<path d="M3342 9124 c-39 -27 -52 -67 -52 -159 l0 -85 -50 0 c-84 0 -328 -29
-450 -54 -145 -30 -221 -58 -265 -100 l-35 -33 0 -122 c0 -66 -3 -121 -7 -121
-28 0 -376 -55 -508 -81 -969 -185 -1610 -509 -1734 -876 -20 -60 -21 -81 -21
-590 l0 -528 -55 -29 c-185 -97 -206 -297 -43 -406 32 -21 67 -42 78 -45 19
-6 20 -16 20 -276 0 -150 -4 -269 -9 -269 -5 0 -36 -20 -69 -44 -172 -127
-160 -331 27 -441 l51 -30 0 -265 0 -265 -46 -30 c-130 -85 -175 -235 -109
-365 23 -45 92 -117 134 -139 20 -11 21 -18 21 -183 l0 -171 -60 -63 c-83 -86
-114 -156 -115 -254 0 -96 34 -169 117 -254 l58 -60 0 -197 0 -197 -59 -60
c-35 -36 -73 -88 -92 -129 -32 -63 -34 -74 -34 -168 0 -89 3 -106 28 -157 15
-31 57 -88 92 -126 l65 -70 0 -403 c0 -375 2 -407 19 -446 150 -330 1116 -574
2666 -674 268 -17 1289 -23 1600 -10 1128 49 2026 188 2519 391 206 85 333
175 395 280 l26 45 3 424 3 424 48 54 c27 30 61 79 77 111 26 51 29 67 29 157
0 93 -2 105 -32 165 -18 36 -53 88 -78 117 l-45 51 0 223 0 222 46 49 c67 72
97 145 98 238 0 92 -29 165 -98 238 l-46 49 0 192 0 192 53 49 c91 83 123 181
92 285 -13 46 -29 70 -81 123 l-64 66 0 277 0 276 52 39 c29 21 63 54 75 73
76 113 45 255 -75 345 l-52 39 0 277 0 278 43 25 c83 50 121 100 133 176 14
87 -40 183 -132 237 l-44 26 0 508 c0 295 -4 530 -10 561 -43 230 -297 458
-706 635 -375 163 -1017 322 -1523 380 l-61 7 0 120 0 120 -34 32 c-82 77
-306 124 -758 160 l-78 7 0 90 c0 89 0 90 -34 124 l-34 34 -424 0 c-368 0
-426 -2 -446 -16z m826 -159 l3 -70 -386 0 -385 0 0 66 c0 36 3 69 7 72 4 4
176 6 382 5 l376 -3 3 -70z m-14 -181 c12 -5 16 -20 16 -63 0 -86 35 -121 91
-91 16 9 19 22 19 81 l0 70 73 -6 c380 -32 677 -87 677 -124 0 -18 -106 -49
-261 -75 -497 -85 -1415 -83 -1923 4 -126 21 -248 58 -240 71 24 39 456 119
644 119 l40 0 0 -57 c0 -63 18 -93 56 -93 40 0 54 25 54 95 l0 64 48 4 c82 6
690 7 706 1z m-1449 -244 c508 -138 1936 -122 2318 25 15 6 17 -1 17 -78 l0
-85 -62 -21 c-224 -72 -585 -105 -1158 -105 -573 0 -934 33 -1157 105 l-63 21
0 85 c0 77 2 84 18 78 9 -3 49 -15 87 -25z m-103 -210 c181 -80 602 -123 1208
-124 607 0 1014 40 1217 120 l63 25 117 -16 c1042 -141 1814 -427 2047 -759
49 -69 71 -121 81 -188 6 -42 5 -47 -23 -67 -148 -105 -938 -220 -1872 -271
-490 -27 -662 -31 -1375 -37 -941 -7 -1502 8 -2200 58 -711 50 -1268 133
-1482 220 l-53 21 0 54 c0 200 224 412 621 588 335 148 817 277 1329 355 166
26 252 38 266 40 6 0 32 -8 56 -19z m4748 -2043 c3 -2 24 -14 47 -26 132 -66
159 -160 65 -225 -73 -49 -349 -126 -617 -171 -708 -118 -1743 -179 -3040
-179 -712 0 -1074 9 -1615 39 -1101 62 -1870 184 -2026 322 -80 70 -42 158 93
220 29 14 58 33 63 43 6 12 10 192 10 475 0 363 3 456 13 452 391 -150 1284
-247 2637 -288 430 -13 1658 -7 2035 10 1123 51 1827 130 2185 247 58 19 112
38 120 44 13 8 16 -48 20 -475 3 -266 7 -485 10 -488z m54 -1051 c72 -50 96
-80 103 -132 10 -77 -56 -137 -224 -203 -401 -158 -1257 -269 -2498 -323 -364
-16 -1568 -16 -1930 0 -965 43 -1640 113 -2155 224 -211 45 -429 124 -507 184
-100 76 -75 182 62 261 37 21 66 45 69 57 3 12 6 149 6 305 0 254 2 283 16
277 75 -29 365 -86 609 -120 720 -100 1663 -149 2845 -150 1598 0 2866 98
3455 266 l80 23 5 -314 5 -315 59 -40z m-64 -699 l0 -303 70 -62 c113 -102
116 -167 11 -255 -92 -79 -226 -140 -431 -198 -708 -201 -1997 -312 -3430
-296 -541 6 -767 14 -1185 42 -786 53 -1468 155 -1842 276 -152 49 -192 68
-267 122 -88 62 -119 106 -120 165 -1 62 28 107 111 168 34 25 64 52 67 60 3
9 6 142 6 296 0 262 1 280 18 275 295 -96 654 -166 1107 -217 1632 -183 3962
-149 5270 76 171 30 427 91 530 128 39 13 73 25 78 25 4 1 7 -135 7 -302z m0
-985 l0 -218 51 -49 c155 -152 121 -295 -104 -442 -734 -480 -3446 -681 -5485
-408 -602 81 -1048 194 -1349 341 -92 45 -125 68 -191 132 -64 62 -83 87 -97
130 -30 93 -4 161 99 265 l66 65 0 186 0 187 28 -14 c127 -65 544 -163 937
-221 1044 -155 2614 -199 3930 -110 896 60 1605 174 1980 319 50 19 97 40 105
45 8 5 18 10 23 10 4 0 7 -98 7 -218z m57 -1295 c72 -79 103 -144 103 -220 0
-66 -6 -79 -66 -159 -214 -278 -930 -506 -1984 -632 -834 -100 -1816 -122
-2700 -60 -1014 70 -1818 239 -2293 481 -94 47 -125 70 -193 137 -95 96 -124
150 -124 233 0 83 34 149 120 234 l70 69 0 210 0 210 52 -29 c235 -132 743
-268 1313 -350 1586 -230 3728 -169 4950 141 270 68 527 162 645 237 l45 28 3
-235 2 -235 57 -60z m-78 -1383 c-104 -215 -838 -432 -1834 -543 -886 -99
-1989 -112 -2940 -35 -694 56 -1347 170 -1740 304 -232 79 -418 188 -460 271
-12 23 -15 94 -15 401 l0 373 124 -61 c770 -380 2596 -582 4281 -474 1164 75
2078 266 2510 524 l90 53 3 -385 c2 -373 2 -387 -19 -428z"/>
</g>
</svg>
